<svg width="30" height="27" viewBox="0 0 30 27" fill="none" xmlns="http://www.w3.org/2000/svg">
<path d="M2.5 3.375L2.83114 3.47434C4.48119 3.96936 5.30621 4.21686 5.7781 4.80611C6.25 5.39535 6.25 6.17804 6.25 7.74342V10.6875C6.25 13.8694 6.25 15.4604 7.34835 16.449C8.4467 17.4375 10.2145 17.4375 13.75 17.4375H23.75" stroke="#1C274C" stroke-width="1.5" stroke-linecap="round"/>
<path d="M9.375 20.25C10.4105 20.25 11.25 21.0055 11.25 21.9375C11.25 22.8695 10.4105 23.625 9.375 23.625C8.33946 23.625 7.5 22.8695 7.5 21.9375C7.5 21.0055 8.33946 20.25 9.375 20.25Z" stroke="#1C274C" stroke-width="1.5"/>
<path d="M20.625 20.2501C21.6605 20.2501 22.5 21.0056 22.5 21.9376C22.5 22.8696 21.6605 23.6251 20.625 23.6251C19.5895 23.6251 18.75 22.8696 18.75 21.9376C18.75 21.0056 19.5895 20.2501 20.625 20.2501Z" stroke="#1C274C" stroke-width="1.5"/>
<path d="M13.75 10.125H10" stroke="#1C274C" stroke-width="1.5" stroke-linecap="round"/>
<path d="M6.25 6.75H20.563C23.1317 6.75 24.416 6.75 24.9719 7.50854C25.5276 8.2671 25.0216 9.32956 24.0097 11.4545L23.474 12.5795C23.0016 13.5715 22.7654 14.0676 22.2957 14.3463C21.8261 14.625 21.2265 14.625 20.0272 14.625H6.25" stroke="#1C274C" stroke-width="1.5"/>
</svg>
