<svg width="25" height="26" viewBox="0 0 25 26" fill="none" xmlns="http://www.w3.org/2000/svg">
<path d="M21.875 4.875H3.125C2.7106 4.875 2.31317 5.0462 2.02015 5.35095C1.72712 5.6557 1.5625 6.06902 1.5625 6.5V19.5C1.5625 19.931 1.72712 20.3443 2.02015 20.649C2.31317 20.9538 2.7106 21.125 3.125 21.125H21.875C22.2894 21.125 22.6868 20.9538 22.9799 20.649C23.2729 20.3443 23.4375 19.931 23.4375 19.5V6.5C23.4375 6.06902 23.2729 5.6557 22.9799 5.35095C22.6868 5.0462 22.2894 4.875 21.875 4.875ZM20.1562 6.5L12.5 12.0087L4.84375 6.5H20.1562ZM3.125 19.5V7.23937L12.0547 13.6662C12.1855 13.7606 12.3408 13.8112 12.5 13.8112C12.6592 13.8112 12.8145 13.7606 12.9453 13.6662L21.875 7.23937V19.5H3.125Z" fill="white"/>
</svg>
