<svg width="32" height="34" viewBox="0 0 32 34" fill="none" xmlns="http://www.w3.org/2000/svg">
<path d="M10.0084 21.625C10.1554 22.1905 10.7062 22.5224 11.2385 22.3662C11.7709 22.2099 12.0832 21.6247 11.9361 21.059L10.0084 21.625ZM4.26736 6.69314C3.73518 6.53626 3.18406 6.86746 3.03641 7.43289C2.88876 7.99834 3.20048 8.58391 3.73266 8.74079L4.26736 6.69314ZM26.9181 22.2776C27.4527 22.1302 27.7735 21.55 27.6345 20.9821C27.4956 20.4142 26.9497 20.0735 26.4152 20.2211L26.9181 22.2776ZM13.5971 24.875C14.0099 26.4626 13.1037 28.1375 11.4985 28.5808L12.0016 30.6375C14.6376 29.9097 16.2484 27.0922 15.5248 24.3091L13.5971 24.875ZM11.4985 28.5808C9.88289 29.0269 8.26164 28.0306 7.84536 26.4296L5.91757 26.9954C6.63773 29.7652 9.37596 31.3626 12.0016 30.6375L11.4985 28.5808ZM7.84536 26.4296C7.43256 24.842 8.33868 23.167 9.94388 22.7238L9.44082 20.667C6.80476 21.3949 5.19393 24.2124 5.91757 26.9954L7.84536 26.4296ZM9.94388 22.7238C11.5595 22.2776 13.1808 23.274 13.5971 24.875L15.5248 24.3091C14.8047 21.5394 12.0664 19.9421 9.44082 20.667L9.94388 22.7238ZM11.9361 21.059L9.06646 10.0225L7.13868 10.5884L10.0084 21.625L11.9361 21.059ZM6.53896 7.36277L4.26736 6.69314L3.73266 8.74079L6.00426 9.41042L6.53896 7.36277ZM9.06646 10.0225C8.72896 8.7245 7.76148 7.72315 6.53896 7.36277L6.00426 9.41042C6.57172 9.5777 6.99432 10.0332 7.13868 10.5884L9.06646 10.0225ZM14.8124 25.6204L26.9181 22.2776L26.4152 20.2211L14.3093 23.5637L14.8124 25.6204Z" fill="#1C274C"/>
<path d="M12.7539 12.3682C12.1072 9.88113 11.7839 8.63761 12.3327 7.65796C12.8816 6.67829 14.0883 6.34509 16.5018 5.67869L19.0616 4.97186C21.475 4.30546 22.6818 3.97225 23.6323 4.53785C24.583 5.10346 24.9063 6.34699 25.553 8.83405L26.239 11.472C26.8856 13.959 27.209 15.2025 26.66 16.1822C26.1112 17.1619 24.9046 17.4951 22.4911 18.1615L19.9312 18.8683C17.5179 19.5347 16.3111 19.8679 15.3604 19.3024C14.4098 18.7367 14.0864 17.4931 13.4398 15.0062L12.7539 12.3682Z" stroke="#1C274C" stroke-width="1.5"/>
</svg>
