<svg width="42" height="47" viewBox="0 0 42 47" fill="none" xmlns="http://www.w3.org/2000/svg">
<path d="M17.3464 13.5478C16.9098 11.1371 16.3848 7.89572 16.3848 6.19216C16.3809 5.5091 16.4976 4.83197 16.7282 4.20005C16.9587 3.56813 17.2985 2.99401 17.7279 2.51101C18.1572 2.028 18.6675 1.64573 19.2292 1.38636C19.7909 1.12699 20.3928 0.995704 21 1.00011C23.5491 1.00011 25.6152 3.37967 25.6152 6.19216C25.6152 7.84952 25.0928 11.109 24.6536 13.5478M17.3464 33.4522C16.9081 35.8689 16.3848 39.0932 16.3848 40.8078C16.3809 41.4909 16.4976 42.168 16.7282 42.7999C16.9587 43.4319 17.2985 44.006 17.7279 44.489C18.1572 44.972 18.6675 45.3543 19.2292 45.6136C19.7909 45.873 20.3928 46.0043 21 45.9999C23.5491 45.9999 25.6152 43.6203 25.6152 40.8078C25.6152 39.1465 25.0928 35.893 24.6536 33.4522M29.8464 19.3898C31.9946 18.8966 34.8606 18.3079 36.3847 18.3079C36.9919 18.3035 37.5938 18.4348 38.1555 18.6942C38.7172 18.9536 39.2275 19.3358 39.6569 19.8188C40.0862 20.3019 40.426 20.876 40.6566 21.5079C40.8871 22.1398 41.0038 22.8169 40.9999 23.5C40.9999 26.3677 38.8847 28.6921 36.3847 28.6921C34.9115 28.6921 32.0142 28.1044 29.8464 27.6102M12.1536 19.3887C10.0108 18.8976 7.13132 18.3079 5.61525 18.3079C5.00809 18.3035 4.40619 18.4348 3.84449 18.6942C3.28278 18.9536 2.77246 19.3358 2.34312 19.8188C1.91378 20.3019 1.57398 20.876 1.34343 21.5079C1.11288 22.1398 0.996181 22.8169 1.0001 23.5C1.0001 26.3677 3.11526 28.6921 5.61525 28.6921C7.08846 28.6921 9.98577 28.1044 12.1536 27.6102" stroke="black" stroke-width="2" stroke-miterlimit="10" stroke-linecap="round"/>
<path d="M24.7699 13.5224C26.0182 11.457 27.7456 8.75735 28.8576 7.54113C29.2977 7.05296 29.8219 6.66535 30.4 6.40079C30.978 6.13623 31.5983 6 32.2249 6C32.8514 6 33.4717 6.13623 34.0497 6.40079C34.6278 6.66535 35.1521 7.05296 35.5921 7.54113C37.4522 9.57724 37.4163 12.9163 35.5921 14.9131C34.5179 16.09 32.0295 18.0061 30.128 19.3877M11.872 27.6411C9.9852 29.0075 7.51893 30.8984 6.40787 32.1157C5.96192 32.5974 5.60782 33.1713 5.36614 33.8041C5.12445 34.4368 5 35.1158 5 35.8016C5 36.4875 5.12445 37.1665 5.36614 37.7992C5.60782 38.432 5.96192 39.0059 6.40787 39.4876C8.26793 41.5237 11.3183 41.4844 13.1424 39.4876C14.2176 38.3117 15.968 35.5878 17.2301 33.5064M30.128 27.6411C32.0148 29.0075 34.4811 30.8984 35.5921 32.1157C36.0381 32.5974 36.3922 33.1713 36.6339 33.8041C36.8755 34.4368 37 35.1158 37 35.8016C37 36.4875 36.8755 37.1665 36.6339 37.7992C36.3922 38.432 36.0381 39.0059 35.5921 39.4876C33.7321 41.5237 30.6817 41.4844 28.8576 39.4876C27.7806 38.3087 26.0329 35.5899 24.7699 33.5064M17.2301 13.5224C15.9836 11.4621 14.247 8.75029 13.1424 7.54113C12.7023 7.05296 12.1781 6.66535 11.6 6.40079C11.022 6.13623 10.4017 6 9.77515 6C9.14861 6 8.52832 6.13623 7.95027 6.40079C7.37223 6.66535 6.84795 7.05296 6.40787 7.54113C4.54781 9.57724 4.58374 12.9163 6.40787 14.9131C7.47748 16.0839 9.97322 18.0071 11.872 19.3877" stroke="black" stroke-width="2" stroke-miterlimit="10" stroke-linecap="round"/>
<path d="M21 30C24.3137 30 27 27.0899 27 23.5C27 19.9101 24.3137 17 21 17C17.6863 17 15 19.9101 15 23.5C15 27.0899 17.6863 30 21 30Z" stroke="black" stroke-width="2" stroke-miterlimit="10" stroke-linecap="round"/>
</svg>
