<svg width="24" height="24" viewBox="0 0 24 24" fill="none" xmlns="http://www.w3.org/2000/svg">
<path d="M11.9996 7.9C11.1887 7.9 10.3961 8.14046 9.72181 8.59097C9.04757 9.04149 8.52206 9.68182 8.21174 10.431C7.90142 11.1802 7.82023 12.0045 7.97843 12.7999C8.13663 13.5952 8.52712 14.3257 9.10051 14.8991C9.67391 15.4725 10.4045 15.863 11.1998 16.0212C11.9951 16.1794 12.8195 16.0982 13.5687 15.7879C14.3178 15.4776 14.9582 14.9521 15.4087 14.2778C15.8592 13.6036 16.0996 12.8109 16.0996 12C16.101 11.4612 15.9958 10.9275 15.7902 10.4294C15.5847 9.93141 15.2827 9.4789 14.9017 9.09792C14.5207 8.71694 14.0682 8.41498 13.5702 8.20941C13.0722 8.00383 12.5384 7.89868 11.9996 7.9ZM11.9996 14.67C11.4716 14.67 10.9554 14.5134 10.5163 14.22C10.0772 13.9266 9.73498 13.5096 9.53289 13.0218C9.3308 12.5339 9.27793 11.997 9.38095 11.4791C9.48397 10.9612 9.73827 10.4854 10.1117 10.112C10.4851 9.73862 10.9608 9.48432 11.4788 9.3813C11.9967 9.27828 12.5335 9.33115 13.0214 9.53324C13.5093 9.73533 13.9263 10.0775 14.2197 10.5166C14.5131 10.9557 14.6696 11.4719 14.6696 12C14.6696 12.7081 14.3883 13.3873 13.8876 13.888C13.3869 14.3887 12.7078 14.67 11.9996 14.67ZM17.2296 7.73C17.2296 7.92778 17.171 8.12112 17.0611 8.28557C16.9512 8.45002 16.7951 8.57819 16.6123 8.65388C16.4296 8.72957 16.2285 8.74937 16.0346 8.71078C15.8406 8.6722 15.6624 8.57696 15.5225 8.43711C15.3827 8.29725 15.2874 8.11907 15.2489 7.92509C15.2103 7.73111 15.2301 7.53004 15.3058 7.34732C15.3815 7.16459 15.5096 7.00841 15.6741 6.89853C15.8385 6.78865 16.0319 6.73 16.2296 6.73C16.4949 6.73 16.7492 6.83536 16.9368 7.02289C17.1243 7.21043 17.2296 7.46478 17.2296 7.73ZM19.9396 8.73C19.9687 7.48683 19.505 6.28259 18.6496 5.38C17.7519 4.51369 16.5471 4.03896 15.2996 4.06C13.9996 4 9.99965 4 8.69965 4.06C7.45685 4.03309 6.25342 4.4965 5.34965 5.35C4.49428 6.25259 4.03056 7.45683 4.05965 8.7C3.99965 10 3.99965 14 4.05965 15.3C4.03056 16.5432 4.49428 17.7474 5.34965 18.65C6.25342 19.5035 7.45685 19.9669 8.69965 19.94C10.0196 20.02 13.9796 20.02 15.2996 19.94C16.5428 19.9691 17.7471 19.5054 18.6496 18.65C19.505 17.7474 19.9687 16.5432 19.9396 15.3C19.9996 14 19.9996 10 19.9396 8.7V8.73ZM18.2396 16.73C18.1039 17.0739 17.8989 17.3863 17.6374 17.6478C17.376 17.9093 17.0636 18.1142 16.7196 18.25C15.1672 18.5639 13.5802 18.6715 11.9996 18.57C10.4224 18.6716 8.83865 18.564 7.28965 18.25C6.94571 18.1142 6.63332 17.9093 6.37186 17.6478C6.11039 17.3863 5.90542 17.0739 5.76965 16.73C5.34965 15.67 5.43965 13.17 5.43965 12.01C5.43965 10.85 5.34965 8.34 5.76965 7.29C5.90159 6.94267 6.1051 6.62696 6.36696 6.36338C6.62882 6.09979 6.94319 5.89422 7.28965 5.76C8.83865 5.44598 10.4224 5.33838 11.9996 5.44C13.5802 5.33855 15.1672 5.44614 16.7196 5.76C17.0636 5.89577 17.376 6.10075 17.6374 6.36221C17.8989 6.62368 18.1039 6.93606 18.2396 7.28C18.6596 8.34 18.5596 10.84 18.5596 12C18.5596 13.16 18.6596 15.67 18.2396 16.72V16.73Z" fill="white"/>
</svg>
