<svg class="animated" id="freepik_stories-instagram-video-streaming" xmlns="http://www.w3.org/2000/svg" viewBox="0 0 500 500" version="1.1" xmlns:xlink="http://www.w3.org/1999/xlink" xmlns:svgjs="http://svgjs.com/svgjs"><style>svg#freepik_stories-instagram-video-streaming:not(.animated) .animable {opacity: 0;}svg#freepik_stories-instagram-video-streaming.animated #freepik--Icons--inject-85 {animation: 1.5s Infinite  linear floating;animation-delay: 0s;}            @keyframes floating {                0% {                    opacity: 1;                    transform: translateY(0px);                }                50% {                    transform: translateY(-10px);                }                100% {                    opacity: 1;                    transform: translateY(0px);                }            }        </style><g id="freepik--Shadow--inject-85" style="transform-origin: 250px 444.77px 0px;" class="animable"><ellipse cx="250" cy="444.77" rx="146.14" ry="17.24" style="fill: rgb(235, 235, 235); transform-origin: 250px 444.77px 0px;" id="elycexa1tvitj" class="animable"></ellipse></g><g id="freepik--Desk--inject-85" style="transform-origin: 249.995px 429.095px 0px;" class="animable"><polygon points="46.98 429.09 97.74 428.85 148.49 428.76 250 428.6 351.51 428.76 402.26 428.85 453.01 429.09 402.26 429.34 351.51 429.43 250 429.59 148.49 429.43 97.74 429.34 46.98 429.09" style="fill: rgb(38, 50, 56); transform-origin: 249.995px 429.095px 0px;" id="elg6mtlefvgv9" class="animable"></polygon></g><g id="freepik--Device--inject-85" style="transform-origin: 251.33px 253.34px 0px;" class="animable"><path d="M335.82,61.92h-169a17.26,17.26,0,0,0-17.1,17.42v348a17.27,17.27,0,0,0,17.1,17.42h169a17.28,17.28,0,0,0,17.12-17.42v-348A17.27,17.27,0,0,0,335.82,61.92Zm6.43,354.67c0,9.16-6.86,16.57-15.32,16.57H175.69c-8.48,0-15.34-7.41-15.34-16.57V92.53c0-18.66,6.86-19.57,15.34-19.57H206c1.76,0,3.2,2,3.2,4.48v1.07c0,5.81,3.18,5.83,7.09,5.83h70.06c3.94,0,7.09,0,7.09-5.83V77.44c0-2.48,1.42-4.48,3.21-4.48h30.3c8.46,0,15.32,2.48,15.32,19.57Z" style="fill: rgb(38, 50, 56); transform-origin: 251.33px 253.34px 0px;" id="elckvoon8ejka" class="animable"></path><path d="M342.25,95.75V416.59c0,9.16-6.86,16.57-15.32,16.57H175.69c-8.48,0-15.34-7.41-15.34-16.57V95.75c0-18.66,6.86-22.79,15.34-22.79H206c1.76,0,3.2,2,3.2,4.48v1.07c0,5.81,3.18,5.83,7.09,5.83h70.06c3.94,0,7.09,0,7.09-5.83V77.44c0-2.48,1.42-4.48,3.21-4.48h30.3C335.39,73,342.25,78.66,342.25,95.75Z" style="fill: rgb(255, 255, 255); transform-origin: 251.3px 253.06px 0px;" id="el6zmxzzgt2xl" class="animable"></path><path d="M342.25,396.05v20.54c0,9.16-6.86,16.57-15.32,16.57H175.69c-8.48,0-15.34-7.41-15.34-16.57V396.05Z" style="fill: rgb(219, 219, 219); transform-origin: 251.3px 414.605px 0px;" id="elbwka7g7kc0p" class="animable"></path><path d="M260.86,77.08H241.75a1.18,1.18,0,0,1-1.18-1.18h0a1.18,1.18,0,0,1,1.18-1.18h19.11A1.18,1.18,0,0,1,262,75.9h0A1.18,1.18,0,0,1,260.86,77.08Z" style="fill: rgb(255, 255, 255); transform-origin: 251.285px 75.9px 0px;" id="el0g8p1ho8hhs9" class="animable"></path></g><g id="freepik--Character--inject-85" style="transform-origin: 224.041px 253.071px 0px;" class="animable"><path d="M204.32,261.79C217,276.66,238.41,282,257.1,282.68c19,.74,40.39-1.61,57.36-10.9,7.44-4.06,14.23-9.87,18.42-17.31,4.51-8,4.85-16.27-.42-23.5-4.25-5.83-13.3-9.85-13.47-15.29s4.15-9.86,5.23-15.12c1.84-9-3.14-15.57-9.5-21.2-15.05-13.39-11.55-31.67-21-48.55-5.39-9.6-20.38-27.18-46.13-18.29-9.8,3.38-16.31,12.62-20.08,22.11-4.43,11.16-.67,25.59-6.17,36.36-4.7,9.17-11.9,10.81-16.37,20.43-1.93,4.17-2.79,9,1.82,18.6,1.67,3.47,3.49,8.78,2.16,13-1.86,5.84-8.59,8.68-10.66,14.79C195.39,246.2,198.75,255.23,204.32,261.79Z" style="fill: rgb(38, 50, 56); transform-origin: 266.782px 196.445px 0px;" id="eluvay4etv8n" class="animable"></path><path d="M327.15,256.91c8.87-1.71,12.35-14.22,6.53-20.4-3.69-3.92-9.12-5.63-12.82-9.53-6.08-6.42-1-12.5,2-19,6.51-14.2-3.18-23.39-13.4-31.77-7.74-6.36-9.49-13.85-10.26-23.52,0-.14.24-.17.26,0,.9,7.1,2.08,14.08,7.17,19.51,4.14,4.42,9.57,7.37,13.58,12,6.74,7.7,7.77,16.23,3.44,25.37-1.24,2.62-3.66,5.63-4.12,8.47-1.06,6.7,4,10,8.81,13.14,3.69,2.41,7.77,5.09,9.26,9.49,2.25,6.67-3.46,16-10.35,16.89C326.94,257.5,326.79,257,327.15,256.91Z" style="fill: rgb(38, 50, 56); transform-origin: 318.649px 205.067px 0px;" id="elc73b4fhucdg" class="animable"></path><path d="M322.27,264c5.36-3.5,11.21-6.71,14.25-12.64,4.51-8.78-1.62-15.12-7.36-21.08-2.46-2.56-4.53-5.12-4.51-8.83,0-5.56,3.88-10.33,4.38-15.85,1.18-13.18-11.9-20.74-18.66-30.17-6.91-9.64-9.4-21.09-12.15-32.39a.19.19,0,0,1,.37-.09c3.61,14.44,8.27,27.95,18.8,38.84,7.34,7.59,15.15,15.82,12.2,27.23-.72,2.8-2.27,5.38-2.93,8.17-1.32,5.56.27,9.08,4,12.92,3.59,3.69,7.72,7.43,8.54,12.79,1.59,10.4-8.52,17.64-16.48,21.9A.46.46,0,0,1,322.27,264Z" style="fill: rgb(38, 50, 56); transform-origin: 318.791px 203.825px 0px;" id="el08ednluwulsp" class="animable"></path><path d="M195.75,234.61c4.19-6.51,11.1-9.93,8.9-18.91-1.52-6.19-5.07-11-4.09-17.71.81-5.51,4.12-9.88,8.08-13.65,5-4.77,10.64-8.69,14.19-14.8,3.88-6.67,5.44-14.37,7.06-21.8,0-.15.29-.11.26,0-1.61,10.09-3.66,20.46-10.87,28.24-3.75,4.06-8.4,7.21-12.12,11.31-6.68,7.38-6.29,15.15-2.91,23.9,1.55,4,2.95,8.05,1.28,12.27s-5.48,6.95-8.07,10.54c-11,15.22,7.65,33.17,22.51,35.24.66.09.63,1.13-.05,1.05-11.11-1.22-23.21-10.81-26.13-21.66A17.5,17.5,0,0,1,195.75,234.61Z" style="fill: rgb(38, 50, 56); transform-origin: 211.636px 208.968px 0px;" id="el7phbtfq2fwv" class="animable"></path><path d="M196.59,242.47c-.18-6.61,3.74-10.44,6.67-15.75,4.61-8.36-.9-16.16-1.9-24.73-.7-6,1.48-11.15,5-15.68,4.68-6.11,10.81-10.58,14.55-17.51a43,43,0,0,0,4.81-24.2c0-.16.22-.15.24,0,1.38,11.73-1.71,23-9.14,31.71-4.72,5.56-11.2,10.21-13.64,17.52-2.59,7.73,1.54,14.51,2.91,22a16.91,16.91,0,0,1-2.61,12.89c-1.87,2.92-4.19,5.61-5.15,9.07-1.29,4.69-.06,9.79,2,14.09,6.56,13.6,21.45,21.66,35.35,23.28.49.06.49.85,0,.8a48.14,48.14,0,0,1-32.47-17.63C199.63,253.91,196.75,248.32,196.59,242.47Z" style="fill: rgb(38, 50, 56); transform-origin: 216.316px 210.223px 0px;" id="elx17kwz8ivj" class="animable"></path><path d="M264.87,222.87c-13.12,17.07-59,52.85-97.61,61.81-19.2,4.46-32.25.44-39.27-3.47-12.75-7.1-1-69.07,6.47-85.76,2.86-6.4,50.73,8.91,47,15.39-2.75,4.72-6.79,26.59-4.83,27s45-20.47,74.39-32.11C270.87,197.83,277.07,207,264.87,222.87Z" style="fill: rgb(235, 148, 129); transform-origin: 196.728px 240.278px 0px;" id="eln89zsgom5oo" class="animable"></path><path d="M123.88,211.35l55.69,14.21s-3.44,10.4-2.38,10.66,55.5-27.05,74.74-32,29.94.35,12.16,22-64,60.37-107.72,70.65c-10,2.35-29.32-12.05-34.25-19.81S123.88,211.35,123.88,211.35Z" style="fill: rgb(69, 90, 100); transform-origin: 196.729px 249.815px 0px;" id="elnwiu2l2t5ra" class="animable"></path><path d="M264.09,226.27c-17.78,21.68-64,60.37-107.72,70.65-10,2.35-29.32-12.05-34.25-19.81s1.76-65.76,1.76-65.76l55.69,14.21s-3.44,10.4-2.38,10.66,55.5-27.05,74.74-32c9.27-2.38,16.55-2.39,19.63.68h0a5.08,5.08,0,0,1,.44.5C274.7,208.88,272.85,215.59,264.09,226.27Z" style="fill: rgb(69, 90, 100); transform-origin: 196.727px 249.842px 0px;" id="elqutgiyiyvc" class="animable"></path><path d="M272,205.42h-.45v-.5h0A5.08,5.08,0,0,1,272,205.42ZM167,231.14h-1.51a2.06,2.06,0,0,1-2.06-2.06,2.56,2.56,0,0,0-2.56-2.56h-1.59v.5h1.59a2.06,2.06,0,0,1,2.06,2.06,2.56,2.56,0,0,0,2.56,2.56H167Zm30,37.91h-1.51A2.06,2.06,0,0,1,193.4,267a2.56,2.56,0,0,0-2.56-2.56h-1.6v.5h1.6A2.06,2.06,0,0,1,192.9,267a2.56,2.56,0,0,0,2.56,2.56H197Zm35.88-44.32h-1.52a2.06,2.06,0,0,1-2.06-2.06,2.56,2.56,0,0,0-2.56-2.56h-1.59v.5h1.59a2.06,2.06,0,0,1,2.06,2.06,2.56,2.56,0,0,0,2.56,2.56h1.52Zm-70.94,40.42H160.4a2.06,2.06,0,0,1-2.06-2.06,2.56,2.56,0,0,0-2.56-2.56h-1.6v.5h1.6a2.06,2.06,0,0,1,2.06,2.06,2.56,2.56,0,0,0,2.56,2.56h1.51Zm84.22-26-1.07-1.07a2.06,2.06,0,0,1,0-2.91,2.58,2.58,0,0,0,.75-1.81,2.54,2.54,0,0,0-.75-1.81l-1.13-1.13-.35.35,1.13,1.13a2.06,2.06,0,0,1,0,2.91,2.57,2.57,0,0,0,0,3.63l1.07,1.06Zm-39.49,13.62-1.07-1.07a2.06,2.06,0,0,1,0-2.91,2.56,2.56,0,0,0,0-3.62l-1.13-1.13-.35.35,1.13,1.13a2.06,2.06,0,0,1,0,2.91,2.57,2.57,0,0,0,0,3.63l1.07,1.07Zm-50.14,38-1.07-1.07a2.06,2.06,0,0,1,0-2.92,2.54,2.54,0,0,0,.75-1.81,2.58,2.58,0,0,0-.75-1.81l-1.13-1.13-.36.36,1.13,1.13a2,2,0,0,1,0,2.91,2.58,2.58,0,0,0,0,3.62l1.07,1.07Zm-23.44-58.5L132,231.26a2.06,2.06,0,0,1,0-2.91,2.56,2.56,0,0,0,0-3.62l-1.13-1.13-.35.35,1.13,1.13a2.08,2.08,0,0,1,0,2.92,2.56,2.56,0,0,0,0,3.62l1.07,1.07Zm65.14-1.67a2.08,2.08,0,0,1,2.92,0,2.56,2.56,0,0,0,3.62,0l1.13-1.12-.36-.36-1.13,1.13a2.06,2.06,0,0,1-2.91,0,2.56,2.56,0,0,0-3.62,0l-1.07,1.07.35.35Zm-55,15a2.08,2.08,0,0,1,2.92,0,2.56,2.56,0,0,0,3.62,0l1.13-1.13-.36-.35-1.12,1.13a2.08,2.08,0,0,1-2.92,0,2.56,2.56,0,0,0-3.62,0l-1.07,1.07.35.35Zm33,34.68a2.06,2.06,0,0,1,2.91,0,2.53,2.53,0,0,0,1.81.75,2.5,2.5,0,0,0,1.81-.75l1.13-1.13-.35-.35L182.37,280a2.06,2.06,0,0,1-2.91,0,2.57,2.57,0,0,0-3.63,0l-1.06,1.07.35.35Zm79.94-58.27a2.06,2.06,0,0,1,2.91,0,2.52,2.52,0,0,0,1.81.75h0a2.5,2.5,0,0,0,1.81-.75l1.13-1.13-.35-.35-1.13,1.13a2,2,0,0,1-1.46.6h0a2,2,0,0,1-1.46-.6,2.56,2.56,0,0,0-3.62,0l-1.07,1.07.36.35ZM131,270.19a2.06,2.06,0,0,1,2.06-2.06,2.56,2.56,0,0,0,2.56-2.56v-1.51h-.5v1.51a2.07,2.07,0,0,1-2.06,2.06,2.56,2.56,0,0,0-2.56,2.56v1.6h.5Zm92.08-24.68a2.06,2.06,0,0,1,2.06-2.06,2.56,2.56,0,0,0,2.56-2.56v-1.51h-.5v1.51a2.06,2.06,0,0,1-2.06,2.06,2.56,2.56,0,0,0-2.56,2.56v1.6h.5ZM181.44,249a2.07,2.07,0,0,1,2.06-2.06,2.56,2.56,0,0,0,2.56-2.56v-1.51h-.5v1.51a2.06,2.06,0,0,1-2.06,2.06,2.56,2.56,0,0,0-2.56,2.56v1.6h.5ZM245,211.26A2.06,2.06,0,0,1,247,209.2a2.56,2.56,0,0,0,2.56-2.56v-1.51h-.5v1.51A2.07,2.07,0,0,1,247,208.7a2.56,2.56,0,0,0-2.56,2.56v1.6h.5Z" style="fill: rgb(255, 255, 255); transform-origin: 201.25px 248.02px 0px;" id="elz35lkdvslan" class="animable"></path><path d="M174.86,234.3c-6.45-1.9-13.06-3.29-19.63-4.69s-13-2.71-19.48-4c-3.73-.76-7.49-1.44-11.27-2-.08,0-.11.13,0,.15,6.47,1.83,13.06,3.28,19.62,4.72s13,2.88,19.46,4.13c3.74.72,7.5,1.45,11.27,2C175,234.58,175,234.34,174.86,234.3Z" style="fill: rgb(38, 50, 56); transform-origin: 149.685px 229.11px 0px;" id="elq0f1fsexus" class="animable"></path><path d="M178.07,229.42c0-.1-.12-.14-.15,0-1.23,5-2.47,9.93-3.6,14.93s-2.33,10-3.43,15c-.62,2.85-1.29,5.72-2,8.53a.08.08,0,1,0,.15,0c1.48-4.71,3-9.38,4.3-14.15v2.72c0,1.9-.1,3.8-.06,5.69a.08.08,0,0,0,.16,0,42.17,42.17,0,0,0,.47-5.61c0-.94,0-1.87,0-2.8a11.47,11.47,0,0,0-.09-1.92c1.19-4.52,2.25-9.06,3-13.67C177.3,235.25,177.73,232.33,178.07,229.42Z" style="fill: rgb(38, 50, 56); transform-origin: 173.478px 248.659px 0px;" id="elmkxqogop9f" class="animable"></path><path d="M264.09,226.27l-.52.63-.57.67c-3,3.54-7.75,8.49-13.52,14.12a270,270,0,0,1-55.6,40.43l66.94-79.47c.42,0,.83-.06,1.23-.08a23.15,23.15,0,0,1,4.59.19c.26,0,.51.08.75.14a10.62,10.62,0,0,1,1.08.28,2.46,2.46,0,0,1,.29.09C275.19,205.45,275.3,212.61,264.09,226.27Z" style="fill: rgb(38, 50, 56); transform-origin: 233.516px 242.326px 0px;" id="el5z1ajqz2m8f" class="animable"></path><path d="M304.4,325.06s-4,33.64-7.38,71H214.51c4.79-37.42,9.89-71,9.89-71Z" style="fill: rgb(227, 188, 227); transform-origin: 259.455px 360.56px 0px;" id="el8ge18apqvgv" class="animable"></path><path d="M342.13,396.05H237.65c-9.4-29.56-13.33-71.07-13.33-71.07H334.15s9.36,27,8,68.93C342.08,394.38,342.1,395.11,342.13,396.05Z" style="fill: rgb(227, 188, 227); transform-origin: 283.303px 360.515px 0px;" id="ely28vmmpy9sm" class="animable"></path><path d="M322.1,358.39c-3.23-.2-6.45-.07-9.67-.51a44,44,0,0,1-9.27-2.25,28.7,28.7,0,0,1-8.1-4.45,35.63,35.63,0,0,1-6.48-6.95c-1.07-1.48-2.1-3-3.07-4.54s-1.81-3.16-2.84-4.66c-.09-.14-.34,0-.28.12a54.28,54.28,0,0,0,4.37,8.93,33.83,33.83,0,0,0,6.14,7.8c4.89,4.54,11.39,6.84,18,7.43,1.87.17,3.75.28,5.63.29a36.49,36.49,0,0,0,5.63-.26A.48.48,0,0,0,322.1,358.39Z" style="fill: rgb(38, 50, 56); transform-origin: 302.464px 347.295px 0px;" id="el5a3wm848gms" class="animable"></path><path d="M332.56,392.77c0,1.1,0,2.19,0,3.28h-.79c0-1.64-.07-3.29-.12-4.93-.31-10,.31-25-1-34.93-.68-5-1.45-10-2.34-15-.74-4.18-1.61-8.65-4.23-12.11-.06-.09.07-.17.15-.09,3.14,3.88,4.17,8.72,5.16,13.49a226.46,226.46,0,0,1,4,30C333.76,377.57,332.52,387.73,332.56,392.77Z" style="fill: rgb(38, 50, 56); transform-origin: 328.762px 362.504px 0px;" id="el9voisy3ck4" class="animable"></path><path d="M218.42,337.84l10.52-49.57s-11.21-16.91-6.2-29.9c2.53-6.58,25.77-48,36.14-56.62,9.73-8.08,25.35-1.41,31,4.33C320.94,237.88,329.73,274,341,337.84Z" style="fill: rgb(69, 90, 100); transform-origin: 279.71px 267.923px 0px;" id="elz1oq4tms3b" class="animable"></path><path d="M304,290.37h-1.51a2.56,2.56,0,0,1-2.56-2.56,2.07,2.07,0,0,0-2.06-2.06h-1.6v-.5h1.6a2.56,2.56,0,0,1,2.56,2.56,2.06,2.06,0,0,0,2.06,2.06H304Zm-24.67-80.83h-1.51a2.06,2.06,0,0,1-2.06-2.06,2.56,2.56,0,0,0-2.56-2.56h-1.6v.5h1.6a2.06,2.06,0,0,1,2.06,2.06,2.56,2.56,0,0,0,2.56,2.56h1.51ZM243.9,264h-1.51a2.07,2.07,0,0,1-2.06-2.06,2.56,2.56,0,0,0-2.56-2.56h-1.6v.5h1.6a2.06,2.06,0,0,1,2.06,2.06,2.56,2.56,0,0,0,2.56,2.56h1.51Zm38.17-6.93h-1.51A2.07,2.07,0,0,1,278.5,255a2.56,2.56,0,0,0-2.56-2.56h-1.6v.5h1.6A2.06,2.06,0,0,1,278,255a2.56,2.56,0,0,0,2.56,2.56h1.51Zm53.14,58.83H333.7a2.06,2.06,0,0,1-2.06-2.06,2.56,2.56,0,0,0-2.56-2.56h-1.6v.5h1.6a2.06,2.06,0,0,1,2.06,2.06,2.56,2.56,0,0,0,2.56,2.56h1.51Zm-72.38-18.57h-1.51a2.06,2.06,0,0,1-2.06-2.06,2.56,2.56,0,0,0-2.56-2.56h-1.6v.5h1.6a2.06,2.06,0,0,1,2.06,2.06,2.56,2.56,0,0,0,2.56,2.56h1.51Zm-35.36,3.15a2.14,2.14,0,0,1-1.07-.29l-.1.5a2.44,2.44,0,0,0,1.17.29H229v-.5Zm59.33,30.83h-1.52a2.06,2.06,0,0,1-2.06-2.06,2.56,2.56,0,0,0-2.56-2.56h-1.59v.5h1.59a2.06,2.06,0,0,1,2.06,2.06,2.56,2.56,0,0,0,2.56,2.56h1.52Zm-52.07-2.46h-1.51a2.06,2.06,0,0,1-2.06-2.06,2.56,2.56,0,0,0-2.56-2.56H227v.5h1.59a2.06,2.06,0,0,1,2.06,2.06,2.56,2.56,0,0,0,2.56,2.56h1.51ZM284.85,305l-1.07-1.07a2.08,2.08,0,0,1,0-2.92,2.54,2.54,0,0,0,.75-1.81,2.58,2.58,0,0,0-.75-1.81l-1.13-1.13-.35.36,1.13,1.13a2.06,2.06,0,0,1,0,2.91,2.56,2.56,0,0,0,0,3.62l1.07,1.07Zm43.91-11.57-1.07-1.07a2,2,0,0,1,0-2.91,2.56,2.56,0,0,0,0-3.62l-1.13-1.13-.36.35,1.13,1.13a2.06,2.06,0,0,1,0,2.92,2.58,2.58,0,0,0,0,3.62l1.07,1.07ZM315,330.05,313.91,329a2.08,2.08,0,0,1,0-2.92,2.56,2.56,0,0,0,0-3.62l-1.12-1.13-.36.36,1.13,1.13a2.06,2.06,0,0,1,0,2.91,2.56,2.56,0,0,0,0,3.62l1.07,1.07Zm-15.25-61.58-1.07-1.07a2,2,0,0,1,0-2.91,2.59,2.59,0,0,0,0-3.63l-1.13-1.12-.36.35,1.13,1.13a2.06,2.06,0,0,1,0,2.91,2.56,2.56,0,0,0,0,3.62l1.07,1.07Zm-53.6-29.28-1.07-1.07a2.06,2.06,0,0,1,0-2.91,2.58,2.58,0,0,0,.75-1.81,2.54,2.54,0,0,0-.75-1.81l-1.13-1.13-.35.35,1.13,1.13a2.06,2.06,0,0,1,0,2.91,2.57,2.57,0,0,0,0,3.63l1.07,1.06Zm32.54-4.94-1.07-1.07a2.06,2.06,0,0,1,0-2.91,2.53,2.53,0,0,0,.75-1.81,2.5,2.5,0,0,0-.75-1.81l-1.13-1.13-.35.35,1.13,1.13a2.06,2.06,0,0,1,0,2.91,2.56,2.56,0,0,0,0,3.62l1.07,1.07Zm-35.52,54.62-1.07-1.07a2.06,2.06,0,0,1,0-2.91,2.53,2.53,0,0,0,.75-1.81,2.5,2.5,0,0,0-.75-1.81L241,280.14l-.35.35,1.13,1.13a2.06,2.06,0,0,1,0,2.91,2.56,2.56,0,0,0,0,3.62l1.07,1.07ZM294,313.64a2.06,2.06,0,0,1,2.91,0,2.56,2.56,0,0,0,3.62,0l1.13-1.13-.35-.35-1.13,1.13a2.08,2.08,0,0,1-2.92,0,2.56,2.56,0,0,0-3.62,0l-1.07,1.06.36.36Zm-2.9-94.8a2,2,0,0,1,2.91,0,2.56,2.56,0,0,0,3.62,0l1.13-1.13-.35-.36-1.13,1.13a2.08,2.08,0,0,1-2.92,0,2.56,2.56,0,0,0-3.62,0l-1.07,1.07.36.35Zm-50.13,90a2.08,2.08,0,0,1,2.92,0,2.56,2.56,0,0,0,3.62,0l1.13-1.13-.35-.35-1.13,1.12a2.06,2.06,0,0,1-2.92,0,2.58,2.58,0,0,0-3.62,0l-1.07,1.07.36.36Zm-16.35-41.1-1.13,1.13a2,2,0,0,1-1.76.57c0,.17,0,.35.06.52H222a2.53,2.53,0,0,0,1.81-.75l1.13-1.13Zm32.09,4.38a2.06,2.06,0,0,1,2.91,0,2.56,2.56,0,0,0,3.62,0l1.13-1.13-.35-.35-1.13,1.13a2.08,2.08,0,0,1-2.92,0,2.56,2.56,0,0,0-3.62,0l-1.07,1.07.36.35Zm-6.25,58.31a2.11,2.11,0,0,1,2.92,0,2.54,2.54,0,0,0,1.81.75,2.58,2.58,0,0,0,1.81-.75l1.13-1.13-.36-.35-1.13,1.13a2.06,2.06,0,0,1-2.91,0,2.56,2.56,0,0,0-3.62,0L249,331.15l.35.35Zm61.85-55a2.08,2.08,0,0,1,2.92,0,2.5,2.5,0,0,0,1.81.75,2.53,2.53,0,0,0,1.81-.75l1.13-1.13-.36-.35-1.13,1.13a2.06,2.06,0,0,1-2.91,0,2.56,2.56,0,0,0-3.62,0l-1.07,1.07.35.35Zm-56.16-53.37a2.06,2.06,0,0,1,2.91,0,2.52,2.52,0,0,0,1.81.75h0a2.5,2.5,0,0,0,1.81-.75l1.13-1.13-.35-.35-1.13,1.13a2,2,0,0,1-1.46.6h0a2,2,0,0,1-1.46-.6,2.56,2.56,0,0,0-3.62,0l-1.07,1.07.36.35Zm56.76,82.52a2.06,2.06,0,0,1,2.06-2.06,2.56,2.56,0,0,0,2.56-2.56v-1.52H317V300A2.07,2.07,0,0,1,315,302a2.56,2.56,0,0,0-2.56,2.56v1.59h.5Zm-48.63,13.26a2.07,2.07,0,0,1,2.06-2.06,2.56,2.56,0,0,0,2.56-2.56v-1.51h-.5v1.51a2.06,2.06,0,0,1-2.06,2.06,2.56,2.56,0,0,0-2.56,2.56v1.6h.5Zm11.89-36.48a2.06,2.06,0,0,1,2.06-2.06,2.56,2.56,0,0,0,2.56-2.56v-1.51h-.5v1.51a2.06,2.06,0,0,1-2.06,2.06,2.56,2.56,0,0,0-2.56,2.56V283h.5Zm34.22-27.44a2.06,2.06,0,0,1,2.06-2.06,2.56,2.56,0,0,0,2.56-2.56v-1.52h-.5v1.52a2.06,2.06,0,0,1-2.06,2.06,2.56,2.56,0,0,0-2.56,2.56v1.59h.5Zm-52.62-3.87a2.06,2.06,0,0,1,2.06-2.06,2.56,2.56,0,0,0,2.56-2.56v-1.51h-.5v1.51a2.06,2.06,0,0,1-2.06,2.06,2.56,2.56,0,0,0-2.56,2.56v1.6h.5ZM293,243.2a2.06,2.06,0,0,1,2.06-2.06,2.56,2.56,0,0,0,2.56-2.56v-1.52h-.5v1.52a2.06,2.06,0,0,1-2.06,2.06,2.56,2.56,0,0,0-2.56,2.56v1.59h.5Z" style="fill: rgb(255, 255, 255); transform-origin: 278.47px 268.365px 0px;" id="el60fs9fofh0e" class="animable"></path><path d="M280.25,201.05c-.12,2.33-13.93,19.45-24.25,20.81-3.35.44-.81-18.46-.81-18.46l-.55-1.3L247,184l19.58-18.19,2.86-2.45s1.75,5.08,3.87,11.44l.31.9c.13.36.25.69.36,1,.33.94.66,1.91,1,2.88.24.74.47,1.45.7,2.24s.46,1.54.71,2.32C278.64,191.93,280.29,200.06,280.25,201.05Z" style="fill: rgb(235, 148, 129); transform-origin: 263.625px 192.614px 0px;" id="el5aiv9qusq4c" class="animable"></path><path d="M273.35,174.82a39.31,39.31,0,0,1-18.71,27.28L247,184l19.58-18.19,2.86-2.45S271.23,168.46,273.35,174.82Z" style="fill: rgb(38, 50, 56); transform-origin: 260.175px 182.73px 0px;" id="elx3b3h7aynfs" class="animable"></path><path d="M213.89,158.92c-.78,34.43,19.75,38.79,27.17,39,6.74.14,29.71-.21,34.05-34.37s-11.42-45.41-26.82-46.56S214.68,124.49,213.89,158.92Z" style="fill: rgb(235, 148, 129); transform-origin: 244.855px 157.412px 0px;" id="elmrfqtktmg7g" class="animable"></path><path d="M220.36,153.83c.81-.14,1.52-.39,2.3-.6a3.86,3.86,0,0,0,2.24-1.06,1.23,1.23,0,0,0-.08-1.5,3,3,0,0,0-3-.56,4.46,4.46,0,0,0-2.73,1.7A1.31,1.31,0,0,0,220.36,153.83Z" style="fill: rgb(38, 50, 56); transform-origin: 221.995px 151.886px 0px;" id="el75976lbkxwq" class="animable"></path><path d="M244.2,153.44c-.81-.06-1.55-.25-2.34-.38a3.83,3.83,0,0,1-2.32-.85,1.22,1.22,0,0,1-.07-1.49,3,3,0,0,1,2.95-.85,4.47,4.47,0,0,1,2.88,1.44A1.31,1.31,0,0,1,244.2,153.44Z" style="fill: rgb(38, 50, 56); transform-origin: 242.42px 151.607px 0px;" id="elynjwtecx2b8" class="animable"></path><path d="M240,162.33c0-.09.19.11.19.2,0,2.35.35,5,2.49,5.77.07,0,.06.14,0,.13C240.1,168.13,239.64,164.55,240,162.33Z" style="fill: rgb(38, 50, 56); transform-origin: 241.311px 165.369px 0px;" id="el1rmbwq9ro7xh" class="animable"></path><path d="M242.06,159.83c3.77-.37,4.24,7.18.76,7.53S238.91,160.15,242.06,159.83Z" style="fill: rgb(38, 50, 56); transform-origin: 242.556px 163.594px 0px;" id="elvqup4tjbz9d" class="animable"></path><path d="M243.57,160.14c.69.39,1.38,1.1,2.18,1.13s1.58-.8,2.13-1.6c.06-.08.13,0,.13.08.12,1.44-.35,3-1.89,3.28s-2.5-.94-3-2.37C243.09,160.4,243.3,160,243.57,160.14Z" style="fill: rgb(38, 50, 56); transform-origin: 245.573px 161.354px 0px;" id="elagy8a4rkff7" class="animable"></path><path d="M225.3,162.19c0-.09-.17.12-.16.22.24,2.33.12,5-1.94,6a.07.07,0,0,0,0,.13C225.78,168,225.9,164.36,225.3,162.19Z" style="fill: rgb(38, 50, 56); transform-origin: 224.377px 165.354px 0px;" id="eldguxdo86w8o" class="animable"></path><path d="M223,159.89c-3.78,0-3.54,7.55,0,7.57S226.21,159.91,223,159.89Z" style="fill: rgb(38, 50, 56); transform-origin: 222.894px 163.675px 0px;" id="elf7luq4fmvha" class="animable"></path><path d="M221.48,160.44c-.59.42-1.15,1.17-1.87,1.24s-1.46-.72-2-1.49c-.06-.08-.12,0-.12.08,0,1.45.53,2.94,1.93,3.18s2.17-1.06,2.47-2.51C221.93,160.67,221.72,160.27,221.48,160.44Z" style="fill: rgb(38, 50, 56); transform-origin: 219.692px 161.818px 0px;" id="elpvygzdebk7l" class="animable"></path><path d="M240,180.36c-.5.6-1,1.41-1.82,1.58a6.28,6.28,0,0,1-2.57-.32.08.08,0,0,0-.08.13,3.16,3.16,0,0,0,3.09.95,2.49,2.49,0,0,0,1.61-2.26C240.26,180.3,240.08,180.27,240,180.36Z" style="fill: rgb(38, 50, 56); transform-origin: 237.872px 181.549px 0px;" id="eli5vig43ob1o" class="animable"></path><path d="M229.78,172.39s-.3,3.52-.22,5.17c0,.16.41.21,1,.21,0,0,0,0,.06,0a7.86,7.86,0,0,0,7.47-3.31.17.17,0,0,0-.26-.22,11.86,11.86,0,0,1-7.06,2.42c-.14-.45.73-6,.46-6a14.32,14.32,0,0,0-3.7,1c.42-7.36,2-14.59,2.33-21.92a.22.22,0,0,0-.43-.08c-2.22,7.46-2.89,15.91-3.52,23.49C225.8,174.12,229.14,172.71,229.78,172.39Z" style="fill: rgb(38, 50, 56); transform-origin: 232.019px 163.67px 0px;" id="el7o0xgvr1gzb" class="animable"></path><path d="M230.6,176.5a9.69,9.69,0,0,0,3.65,3.22,4.28,4.28,0,0,0,2.61.33c1.93-.38,2.09-2.11,1.84-3.62a10.52,10.52,0,0,0-.71-2.34A12.41,12.41,0,0,1,230.6,176.5Z" style="fill: rgb(38, 50, 56); transform-origin: 234.696px 177.107px 0px;" id="el07n1kus991p5" class="animable"></path><path d="M234.25,179.72a4.28,4.28,0,0,0,2.61.33c1.93-.38,2.09-2.11,1.84-3.62C236.65,176.51,234.55,177.76,234.25,179.72Z" style="fill: rgb(242, 145, 184); transform-origin: 236.521px 178.277px 0px;" id="elu0g8nuh5evo" class="animable"></path><path d="M274.43,161.11c-8.18.6-8.94-12.32-8.94-12.32s-9.34-.25-11-15.2c0,0-3.89,9.33-16.36,12-2.64.55,5.85-6.92,5.85-6.92S233.91,149,213.81,146.6c-1.42-.17.24-21.32,15.38-29.45s29.44-5,39.7,4.24c0,0,11.76,4.54,13.73,15.28S277.61,160.88,274.43,161.11Z" style="fill: rgb(38, 50, 56); transform-origin: 248.184px 136.8px 0px;" id="elwdfw4oksevr" class="animable"></path><path d="M235.89,114.23s25,.14,34.22,11.65,4.7,35.09,4.7,35.09,14.31-23.85,1-39C262,106.26,235.89,114.23,235.89,114.23Z" style="fill: rgb(227, 188, 227); transform-origin: 258.684px 136.589px 0px;" id="elmn6jqz7v5bj" class="animable"></path><path d="M269.26,163.66s6.82-11.2,11.86-8.84.39,18.28-5.19,20.77a5.83,5.83,0,0,1-8-2.63Z" style="fill: rgb(235, 148, 129); transform-origin: 275.603px 165.384px 0px;" id="el4e37xrjv8pd" class="animable"></path><path d="M279.67,159.35a.08.08,0,0,1,0,.15c-3.9,1.88-5.77,5.73-7,9.68,1.09-1.56,2.66-2.48,4.74-1.19.11.07,0,.24-.09.22a3.61,3.61,0,0,0-3.86,1.5,16.61,16.61,0,0,0-1.68,3.31c-.16.37-.82.21-.71-.21a.29.29,0,0,1,0-.09C270.71,167.62,274.22,160.22,279.67,159.35Z" style="fill: rgb(38, 50, 56); transform-origin: 275.383px 166.289px 0px;" id="elvf6xoqurq2c" class="animable"></path><path d="M245.74,206.15s12.47-5.2,22.11-6,15-1.94,25.26,9.39c0,0-24.09,18.8-38.54,17.39S245.74,206.15,245.74,206.15Z" style="fill: rgb(235, 148, 129); transform-origin: 268.887px 213.342px 0px;" id="elywlt9yg63s" class="animable"></path><path d="M130.51,207c1.15-2.92,5.79-22.79,8.73-27.92s19.25-18.48,23.83-20.66,23.22-3.65,27.37-1.83c3.33,1.46,1.3,8.72-8.57,11.55-9.23,2.64-11.57,2.81-14,4.2s-7.77,10.49-5.65,14c1.24,2.07,7.9,3.93,11.66,1.7s4.7-7.11,8.81-11.31,12.14-4.64,12.84-2.54-1.82,3.41-5.09,11.19c-2.1,5-1.85,13.25-6.9,22-2.54,4.4-5.78,15.8-5.78,15.8Z" style="fill: rgb(235, 148, 129); transform-origin: 163.079px 189.474px 0px;" id="el2bpdk18g8md" class="animable"></path><g id="elepl5iyw3zo6"><rect x="167.83" y="167.98" width="26.34" height="8.69" style="fill: rgb(227, 188, 227); transform-origin: 181px 172.325px 0px; transform: rotate(-14.4524deg);" class="animable"></rect></g><g id="eleaivilslo7o"><rect x="193.29" y="164.78" width="28.49" height="1.37" style="fill: rgb(38, 50, 56); transform-origin: 207.535px 165.465px 0px; transform: rotate(-14.51deg);" class="animable"></rect></g><path d="M210.48,161.49a12.21,12.21,0,0,1,1.56,6,11,11,0,0,1-1.16-2.91A11.11,11.11,0,0,1,210.48,161.49Z" style="fill: rgb(38, 50, 56); transform-origin: 211.26px 164.49px 0px;" id="elx78uwig9la" class="animable"></path><path d="M211.4,161.26a10.93,10.93,0,0,1,1.16,2.9,11.11,11.11,0,0,1,.4,3.11,10.7,10.7,0,0,1-1.17-2.91A11.36,11.36,0,0,1,211.4,161.26Z" style="fill: rgb(38, 50, 56); transform-origin: 212.18px 164.265px 0px;" id="elmuxabq82fdr" class="animable"></path><path d="M212.31,161a11,11,0,0,1,1.17,2.91,10.66,10.66,0,0,1,.39,3.11,12.5,12.5,0,0,1-1.56-6Z" style="fill: rgb(38, 50, 56); transform-origin: 213.091px 164.01px 0px;" id="el3qf8l2fr6wx" class="animable"></path><path d="M213.23,160.78a12.5,12.5,0,0,1,1.56,6,10.7,10.7,0,0,1-1.17-2.91A11.48,11.48,0,0,1,213.23,160.78Z" style="fill: rgb(38, 50, 56); transform-origin: 214.01px 163.78px 0px;" id="elms5e3ctfqa" class="animable"></path><path d="M214.14,160.54a11.16,11.16,0,0,1,1.17,2.91,10.75,10.75,0,0,1,.39,3.11,12.5,12.5,0,0,1-1.56-6Z" style="fill: rgb(38, 50, 56); transform-origin: 214.921px 163.55px 0px;" id="el2intndktkft" class="animable"></path><path d="M215.06,160.31a12.5,12.5,0,0,1,1.56,6,10.83,10.83,0,0,1-1.17-2.91A11.48,11.48,0,0,1,215.06,160.31Z" style="fill: rgb(38, 50, 56); transform-origin: 215.84px 163.31px 0px;" id="el5k31v94067m" class="animable"></path><path d="M216,160.07a11.16,11.16,0,0,1,1.17,2.91,10.75,10.75,0,0,1,.39,3.11,11,11,0,0,1-1.16-2.91A11.11,11.11,0,0,1,216,160.07Z" style="fill: rgb(38, 50, 56); transform-origin: 216.781px 163.08px 0px;" id="elpkkrgahl589" class="animable"></path><path d="M216.89,159.83a12.5,12.5,0,0,1,1.56,6,10.7,10.7,0,0,1-1.17-2.91A11.38,11.38,0,0,1,216.89,159.83Z" style="fill: rgb(38, 50, 56); transform-origin: 217.67px 162.83px 0px;" id="eljkbz8ofni5" class="animable"></path><path d="M217.8,159.6a11,11,0,0,1,1.17,2.91,10.66,10.66,0,0,1,.39,3.11,12.5,12.5,0,0,1-1.56-6Z" style="fill: rgb(38, 50, 56); transform-origin: 218.581px 162.61px 0px;" id="elg5a8b6d73k" class="animable"></path><path d="M218.72,159.36a12.5,12.5,0,0,1,1.56,6,10.7,10.7,0,0,1-1.17-2.91A11.48,11.48,0,0,1,218.72,159.36Z" style="fill: rgb(38, 50, 56); transform-origin: 219.5px 162.36px 0px;" id="elef446jsotal" class="animable"></path><path d="M219.63,159.12A11.16,11.16,0,0,1,220.8,162a10.75,10.75,0,0,1,.39,3.11,12.5,12.5,0,0,1-1.56-6Z" style="fill: rgb(38, 50, 56); transform-origin: 220.411px 162.11px 0px;" id="el3ljvubho3mh" class="animable"></path><path d="M220.65,159.28a8.41,8.41,0,0,1,1.06,2.52,8.16,8.16,0,0,1,.29,2.72,9.4,9.4,0,0,1-1.35-5.24Z" style="fill: rgb(38, 50, 56); transform-origin: 221.329px 161.9px 0px;" id="elug2e99yqks" class="animable"></path><path d="M209.7,162.11a9.52,9.52,0,0,1,1.36,5.24,9.3,9.3,0,0,1-1.36-5.24Z" style="fill: rgb(38, 50, 56); transform-origin: 210.379px 164.73px 0px;" id="elvonojc3x61" class="animable"></path><path d="M139.24,179.07c3.17-6.47,11.8-18.48,21.14-23.31,6.32-3.27,30.26,5.24,30.08,9.65s-4.05,4.87-9.87,4.83c-2.12,0-13.63-2.75-15.25-.22-2.34,3.64-4.5,15.43-4.5,15.43Z" style="fill: rgb(235, 148, 129); transform-origin: 164.851px 170.24px 0px;" id="elr80w3scmfe" class="animable"></path><path d="M189.71,163.78c-3.32-4.33-9.77-6.12-16.12-7.39-.1,0-.14.13,0,.15,1.62.33,12.13,3.81,16.1,7.32C189.7,163.9,189.74,163.83,189.71,163.78Z" style="fill: rgb(38, 50, 56); transform-origin: 181.61px 160.131px 0px;" id="elujlz0n9its" class="animable"></path><path d="M139.24,179.07c3.17-6.47,11.8-18.48,21.14-23.31,6.32-3.27,25.86,8.86,25.69,13.28S180.36,174.42,174,173c-2.07-.47-9.27-4.42-10.89-1.89-2.34,3.64-8,12.66-8,12.66Z" style="fill: rgb(235, 148, 129); transform-origin: 162.656px 169.489px 0px;" id="elpnkwti3wu4s" class="animable"></path><path d="M179.26,173.56c-2.44.06-5.25-1.07-7.46-2-1.93-.84-4-2-6.17-1.94a4.43,4.43,0,0,0-2.66.84,8.9,8.9,0,0,0-1.8,2.37c-.6,1-1.14,2-1.67,3s-.7,1.37-1.21,2.39c-.22.43.09.53.34.07a31,31,0,0,1,3.15-4.72,9.94,9.94,0,0,1,2-2.23,3.8,3.8,0,0,1,2.89-.52c2.08.39,4,1.51,6,2.06s4.55,1.28,6.64.9C179.39,173.72,179.36,173.56,179.26,173.56Z" style="fill: rgb(38, 50, 56); transform-origin: 168.785px 174.105px 0px;" id="elb839kailz0r" class="animable"></path><path d="M184.57,164.68a21.31,21.31,0,0,0-6.21-4.68,50.55,50.55,0,0,0-7.32-3.29c-1.29-.48-2.6-.92-3.91-1.32a11.27,11.27,0,0,0-3.89-.84c-3.62.22-6.71,3.38-8,4.39-.08.06,0,.2.08.13,1.06-.81,4.47-3.49,6.7-3.72a9.5,9.5,0,0,1,4,.68c1.13.37,2.26.74,3.38,1.15,4.57,1.63,9.32,3.72,13,6.9,2.05,1.77,3.67,4.21,2.84,7,0,.09.11.14.16.06C186.76,169.14,186,166.39,184.57,164.68Z" style="fill: rgb(38, 50, 56); transform-origin: 170.66px 162.865px 0px;" id="elmcxi690enj" class="animable"></path><path d="M137,184.67c1.09-3,2.15-15.16,4-19S151.92,148,156.86,148c6.21,0,1.06,11.76-1.65,16.68s-1.29,12.58-1.29,12.58Z" style="fill: rgb(235, 148, 129); transform-origin: 148.399px 166.335px 0px;" id="elw6k4r1hnbv" class="animable"></path><path d="M158.85,156.61a54.31,54.31,0,0,0-2.63,4.94,36.17,36.17,0,0,0-2.24,4.81,15.94,15.94,0,0,0-.63,5.19c0,.86.08,1.71.17,2.57s.29,1.87.37,2.8c0,.1.17.1.16,0a38.69,38.69,0,0,1,.1-5.16,21.17,21.17,0,0,1,1-5.23c1.07-3.37,2.85-6.47,3.95-9.83A.12.12,0,0,0,158.85,156.61Z" style="fill: rgb(38, 50, 56); transform-origin: 156.221px 166.759px 0px;" id="el4sgldbanxca" class="animable"></path><polygon points="159.78 238.58 118.18 238.58 111.82 196.99 153.42 196.99 159.78 238.58" style="fill: rgb(38, 50, 56); transform-origin: 135.8px 217.785px 0px;" id="el0mro2fpdrwq" class="animable"></polygon><rect x="118.18" y="232.05" width="65.39" height="6.53" style="fill: rgb(38, 50, 56); transform-origin: 150.875px 235.315px 0px;" id="elivgeckgrio" class="animable"></rect><path d="M294.81,234.51c-8.87,21-49,74.18-73.49,81.85-21.42,6.7-56.85-11.73-82-34.3-5.22-4.69,30.44-31.55,37-27.91,11.89,6.59,28.34,14.21,33.95,14.13s36.79-24.59,63.26-44.43C294.42,208.19,302.6,216.09,294.81,234.51Z" style="fill: rgb(235, 148, 129); transform-origin: 218.255px 266.619px 0px;" id="ellsr858imr9b" class="animable"></path><path d="M139.32,282.06c-2.6-1.74-18.7-20.92-22.82-29.06a89,89,0,0,1-9.25-27.21c-2.44-15-1.59-22.95.93-27,2.92-4.77,6,.7,11.31,20.61,4,14.83,10.61,15.06,17,16.53a106.68,106.68,0,0,1,42.82,20.64S149.32,288.71,139.32,282.06Z" style="fill: rgb(235, 148, 129); transform-origin: 142.553px 240.07px 0px;" id="el1vfym0hwo9s" class="animable"></path><path d="M161,309.54l21.65-54.28s21.67,11,26.58,10.81,46.5-32.46,69.3-46.56,24.59,3,11.62,26.25-45.64,69.24-71,73.12S161,309.54,161,309.54Z" style="fill: rgb(69, 90, 100); transform-origin: 229.615px 266.993px 0px;" id="el3qr3tzdvlnl" class="animable"></path><path d="M243.9,264.53h-1.51a2.56,2.56,0,0,1-2.56-2.56,2.06,2.06,0,0,0-2.06-2.06h-1.6v-.5h1.6a2.56,2.56,0,0,1,2.56,2.56,2.07,2.07,0,0,0,2.06,2.06h1.51ZM197,269.05h-1.51A2.06,2.06,0,0,1,193.4,267a2.56,2.56,0,0,0-2.56-2.56h-1.6v.5h1.6A2.06,2.06,0,0,1,192.9,267a2.56,2.56,0,0,0,2.56,2.56H197Zm85.1-11.95h-1.51A2.07,2.07,0,0,1,278.5,255a2.56,2.56,0,0,0-2.56-2.56h-1.6v.5h1.6A2.06,2.06,0,0,1,278,255a2.56,2.56,0,0,0,2.56,2.56h1.51Zm-27,35.64v.5H256l.45-.5ZM229,300.51h-1.51a2.06,2.06,0,0,1-2.06-2.06,2.56,2.56,0,0,0-2.56-2.56h-1.6v.5h1.6a2.07,2.07,0,0,1,2.06,2.06,2.56,2.56,0,0,0,2.56,2.56H229Zm49.69-66.26-1.07-1.07a2.06,2.06,0,0,1,0-2.91,2.53,2.53,0,0,0,.75-1.81,2.5,2.5,0,0,0-.75-1.81l-1.13-1.13-.35.35,1.13,1.13a2.06,2.06,0,0,1,0,2.91,2.56,2.56,0,0,0,0,3.62l1.07,1.07Zm-35.52,54.62-1.07-1.07a2.06,2.06,0,0,1,0-2.91,2.53,2.53,0,0,0,.75-1.81,2.5,2.5,0,0,0-.75-1.81L241,280.14l-.35.35,1.13,1.13a2.06,2.06,0,0,1,0,2.91,2.56,2.56,0,0,0,0,3.62l1.07,1.07ZM190,300.43l-1.07-1.07a2.06,2.06,0,0,1,0-2.91,2.56,2.56,0,0,0,0-3.62l-1.13-1.13-.35.35,1.13,1.13a2.08,2.08,0,0,1,0,2.92,2.56,2.56,0,0,0,0,3.62l1.07,1.07Zm107.58-82.26-.31.31a2.08,2.08,0,0,1-2.92,0,2.56,2.56,0,0,0-3.62,0l-1.07,1.07.36.35,1.07-1.07a2.06,2.06,0,0,1,2.91,0,2.56,2.56,0,0,0,3.62,0l.13-.13A3.27,3.27,0,0,0,297.57,218.17Zm-80.28,51.05a2.08,2.08,0,0,1,2.92,0A2.5,2.5,0,0,0,222,270a2.53,2.53,0,0,0,1.81-.75l1.13-1.13-.36-.35-1.13,1.13a2.06,2.06,0,0,1-2.91,0,2.56,2.56,0,0,0-3.62,0l-1.07,1.07.35.35Zm-41.1,11.12a2.06,2.06,0,0,1,2.91,0,2.53,2.53,0,0,0,1.81.75,2.5,2.5,0,0,0,1.81-.75l1.13-1.13-.35-.35L182.37,280a2.06,2.06,0,0,1-2.91,0,2.57,2.57,0,0,0-3.63,0l-1.06,1.07.35.35Zm80.5-8.22a2.06,2.06,0,0,1,2.91,0,2.56,2.56,0,0,0,3.62,0l1.13-1.13-.35-.35-1.13,1.13a2.08,2.08,0,0,1-2.92,0,2.56,2.56,0,0,0-3.62,0l-1.07,1.07.36.35Zm-51.21,41.29a2.06,2.06,0,0,1,2.06-2.06,2.56,2.56,0,0,0,2.56-2.56v-1.52h-.5v1.52a2.07,2.07,0,0,1-2.06,2.06,2.56,2.56,0,0,0-2.56,2.56V315h.5Zm52.27-63.35a2.06,2.06,0,0,1,2.06-2.06,2.56,2.56,0,0,0,2.56-2.56v-1.51h-.5v1.51a2.06,2.06,0,0,1-2.06,2.06,2.56,2.56,0,0,0-2.56,2.56v1.6h.5ZM168.61,307.6a2.06,2.06,0,0,1,2.06-2.06,2.56,2.56,0,0,0,2.56-2.56v-1.51h-.5V303a2.06,2.06,0,0,1-2.06,2.06,2.56,2.56,0,0,0-2.56,2.56v1.6h.5Zm36.87-18.69a2.07,2.07,0,0,1,2.06-2.07,2.56,2.56,0,0,0,2.56-2.56v-1.51h-.5v1.51a2.06,2.06,0,0,1-2.06,2.06,2.57,2.57,0,0,0-2.56,2.57v1.59h.5Z" style="fill: rgb(255, 255, 255); transform-origin: 232.93px 266.365px 0px;" id="el6x2oc15hb3" class="animable"></path><path d="M280.18,266.27a71.12,71.12,0,0,0-7.65,6.3,138.24,138.24,0,0,0,8.36-13.27c0-.07-.06-.12-.11-.06a277.57,277.57,0,0,1-19.63,26.26,191.74,191.74,0,0,1-22.94,22.92c-4.62,3.79-9.61,7.53-15.19,9.79a.08.08,0,0,0,0,.15,58.59,58.59,0,0,0,7.24-3.35,63.43,63.43,0,0,0,6.66-4.35,124.25,124.25,0,0,0,12.2-10.72,194,194,0,0,0,21.69-25l0,0c3.16-2.8,6-5.9,9.38-8.49C280.34,266.34,280.26,266.21,280.18,266.27Z" style="fill: rgb(38, 50, 56); transform-origin: 251.929px 288.787px 0px;" id="ele6sczjpxz8f" class="animable"></path><path d="M250.49,238.83c-2.89,1.82-5.73,3.71-8.55,5.63l.3-.33c1.1-1.23,2.15-2.51,3.26-3.73a.08.08,0,0,0-.11-.11c-1.14,1.19-2.35,2.32-3.51,3.5-.63.63-1.23,1.28-1.81,2l-6.2,4.29c-5.36,3.72-10.67,7.51-16,11.26a42.94,42.94,0,0,1-6.58,4,5.57,5.57,0,0,1-3.07.47c-1.14-.19-25.58-10.94-25.63-10.78s-.69,1.72-.8,2c0,.09.1.13.14.06a5.68,5.68,0,0,0,.73-1.58c4,2.36,20.67,10.39,26.16,11.24,3.58.55,12.54-6.83,16.23-9.36q8.28-5.67,16.39-11.58c3.08-2.24,6.13-4.52,9.09-6.91C250.56,238.86,250.53,238.81,250.49,238.83Z" style="fill: rgb(38, 50, 56); transform-origin: 216.166px 252.802px 0px;" id="elex4cm7q7jas" class="animable"></path><path d="M192.85,263.16c-2.95,6-5.42,12.33-7.89,18.58s-4.85,12.33-7.22,18.52c-1.37,3.56-2.66,7.16-3.84,10.78,0,.09.11.14.14.06,2.88-6.08,5.41-12.33,7.92-18.56s5-12.28,7.32-18.49c1.34-3.57,2.69-7.16,3.82-10.79A.14.14,0,0,0,192.85,263.16Z" style="fill: rgb(38, 50, 56); transform-origin: 183.5px 287.123px 0px;" id="elt4s20k3qi6" class="animable"></path><path d="M133.34,235c6.54,1.74-7.73-12-6.19-19.54s8.24-3.38,12.93,2.27c16.27,19.63,27.75,17.74,34.36,34.27S133.34,235,133.34,235Z" style="fill: rgb(235, 148, 129); transform-origin: 151.051px 233.976px 0px;" id="el1qgoq28wi2p" class="animable"></path></g><g id="freepik--make-up--inject-85" style="transform-origin: 252.792px 363.109px 0px;" class="animable"><polygon points="258.35 386.87 253.31 387.81 245.53 351.32 252.4 350.04 258.35 386.87" style="fill: rgb(199, 199, 199); transform-origin: 251.94px 368.925px 0px;" id="elce5nwzn5ftq" class="animable"></polygon><polygon points="252.4 350.04 245.53 351.32 242.87 342.18 251.57 340.55 252.4 350.04" style="fill: rgb(235, 235, 235); transform-origin: 247.635px 345.935px 0px;" id="eligz1w1zfhle" class="animable"></polygon><path d="M253.61,329.5c.66,2.25-2,11.05-2,11.05l-8.7,1.63s-5.7-7.23-5.9-9.56,1.51-3.29,7.78-4.46S253,327.25,253.61,329.5Z" style="fill: rgb(38, 50, 56); transform-origin: 245.355px 334.828px 0px;" id="eldxsmudl43y" class="animable"></path><polygon points="267.8 389.05 264.56 388.74 267.17 351.52 272.27 352.01 267.8 389.05" style="fill: rgb(199, 199, 199); transform-origin: 268.415px 370.285px 0px;" id="elpx9wri6hqr" class="animable"></polygon><polygon points="272.27 352.01 267.17 351.52 267.14 342 274.1 342.66 272.27 352.01" style="fill: rgb(235, 235, 235); transform-origin: 270.62px 347.005px 0px;" id="el45rgnzw5k5u" class="animable"></polygon><polygon points="267.14 342 266.25 332.35 276.83 331.49 274.1 342.66 267.14 342" style="fill: rgb(38, 50, 56); transform-origin: 271.54px 337.075px 0px;" id="eljs6u8lidld" class="animable"></polygon><polygon points="260.79 378.57 257.54 378.57 256.6 341.27 261.73 341.27 260.79 378.57" style="fill: rgb(199, 199, 199); transform-origin: 259.165px 359.92px 0px;" id="elmuuixgjwe9k" class="animable"></polygon><polygon points="261.73 341.27 256.6 341.27 255.67 331.8 262.66 331.8 261.73 341.27" style="fill: rgb(235, 235, 235); transform-origin: 259.165px 336.535px 0px;" id="ele6y952eb35e" class="animable"></polygon><path d="M262.66,331.8h-7c-.54-5.45.9-10.3,3.49-10.3S263.2,326.35,262.66,331.8Z" style="fill: rgb(38, 50, 56); transform-origin: 259.16px 326.65px 0px;" id="el0de00c8mbylp" class="animable"></path><rect x="246.49" y="361.24" width="25.94" height="34.81" style="fill: rgb(235, 235, 235); transform-origin: 259.46px 378.645px 0px;" id="el9wm1nt3q1w" class="animable"></rect><g id="ell0lrjga7so"><circle cx="290.13" cy="375.76" r="15.71" style="fill: rgb(55, 71, 79); transform-origin: 290.13px 375.76px 0px; transform: rotate(-76.63deg);" class="animable"></circle></g><path d="M302.37,375.76a12.24,12.24,0,1,1-12.24-12.24A12.24,12.24,0,0,1,302.37,375.76Z" style="fill: rgb(255, 255, 255); transform-origin: 290.13px 375.76px 0px;" id="el9anzhuzdgk" class="animable"></path><rect x="274.04" y="390.45" width="31.8" height="5.6" style="fill: rgb(55, 71, 79); transform-origin: 289.94px 393.25px 0px;" id="elrfqk30f4xlo" class="animable"></rect><path d="M302.37,375.76a12.07,12.07,0,0,1-.83,4.43l-7,7a12.37,12.37,0,0,1-4.44.82,11.79,11.79,0,0,1-3.27-.45l15.06-15.06A12.25,12.25,0,0,1,302.37,375.76Z" style="fill: rgb(235, 235, 235); transform-origin: 294.6px 380.255px 0px;" id="elz5g1cr7b7ja" class="animable"></path><path d="M293.45,364l-15.1,15.1a12.25,12.25,0,0,1,.34-7.68l7.07-7.07a12.2,12.2,0,0,1,7.69-.35Z" style="fill: rgb(235, 235, 235); transform-origin: 285.67px 371.32px 0px;" id="elv307ow6601m" class="animable"></path><path d="M299,367.36l-17.29,17.29a11.59,11.59,0,0,1-1.44-1.61l17.12-17.12A12.26,12.26,0,0,1,299,367.36Z" style="fill: rgb(235, 235, 235); transform-origin: 289.635px 375.285px 0px;" id="el1pahnqsfxz8" class="animable"></path><path d="M300.84,369.83l-16.63,16.63a9,9,0,0,1-.94-.57l17-17C300.47,369.19,300.66,369.51,300.84,369.83Z" style="fill: rgb(235, 235, 235); transform-origin: 292.055px 377.675px 0px;" id="elz8nkrlyu2ck" class="animable"></path><polygon points="199.74 399.7 199.78 394.98 234.11 394.41 234.06 400.84 199.74 399.7" style="fill: rgb(199, 199, 199); transform-origin: 216.925px 397.625px 0px;" id="ellctuelwsezf" class="animable"></polygon><polygon points="234.06 400.84 234.11 394.41 242.84 393.62 242.78 401.77 234.06 400.84" style="fill: rgb(235, 235, 235); transform-origin: 238.45px 397.695px 0px;" id="elf5i9bdyahh" class="animable"></polygon><path d="M252.4,404.71c-2.15.19-9.63-2.94-9.63-2.94l.07-8.15s7.53-3,9.67-2.78,5.64,1.12,5.59,7S254.55,404.51,252.4,404.71Z" style="fill: rgb(38, 50, 56); transform-origin: 250.435px 397.773px 0px;" id="elqrlmjngyrj" class="animable"></path></g><g id="freepik--Texts--inject-85" style="transform-origin: 252.157px 255.04px 0px;" class="animable"><rect x="171.37" y="402.13" width="128.67" height="19.09" rx="9.55" style="fill: rgb(255, 255, 255); transform-origin: 235.705px 411.675px 0px;" id="elo7ktz0pii6" class="animable"></rect><path d="M290.49,421.6H180.92a9.93,9.93,0,0,1,0-19.85H290.49a9.93,9.93,0,0,1,0,19.85ZM180.92,402.5a9.18,9.18,0,0,0,0,18.35H290.49a9.18,9.18,0,0,0,0-18.35Z" style="fill: rgb(38, 50, 56); transform-origin: 235.705px 411.675px 0px;" id="elz3vsr8km4fh" class="animable"></path><path d="M188.41,107.28a9.93,9.93,0,0,1-2.93,1.23,10.16,10.16,0,1,1,2.93-1.23Z" style="fill: rgb(227, 188, 227); transform-origin: 183.06px 98.6422px 0px;" id="elk96mx5n3sg" class="animable"></path><path d="M186.16,97.49a3.09,3.09,0,1,1-3.09-3.09A3.09,3.09,0,0,1,186.16,97.49Z" style="fill: rgb(255, 255, 255); transform-origin: 183.07px 97.49px 0px;" id="el361pzr2lh5" class="animable"></path><path d="M188.41,106v1.27a9.93,9.93,0,0,1-2.93,1.23,10.11,10.11,0,0,1-7.74-1.23V106a5.34,5.34,0,1,1,10.67,0Z" style="fill: rgb(255, 255, 255); transform-origin: 183.075px 104.61px 0px;" id="ela5y69i6z31c" class="animable"></path><path d="M200.36,100.72a1,1,0,0,0,2-.31v-3a.41.41,0,0,1,.82,0v3a1.84,1.84,0,0,1-3.59.56.4.4,0,1,1,.77-.25Z" style="fill: rgb(38, 50, 56); transform-origin: 201.375px 99.6209px 0px;" id="elbxlf0guyk1" class="animable"></path><path d="M204.64,101.7a1.82,1.82,0,0,1-.51-1.3,1.91,1.91,0,0,1,.51-1.3,1.71,1.71,0,0,1,1.27-.56,1.63,1.63,0,0,1,1.24.56,1.83,1.83,0,0,1,.52,1.3,1.75,1.75,0,0,1-.52,1.3,1.64,1.64,0,0,1-1.24.57A1.72,1.72,0,0,1,204.64,101.7Zm.29-1.3a1.17,1.17,0,0,0,.27.78,1,1,0,0,0,.71.28,1,1,0,0,0,.69-.28,1.21,1.21,0,0,0,0-1.55,1,1,0,0,0-.69-.28,1.05,1.05,0,0,0-.71.28A1.16,1.16,0,0,0,204.93,100.4Z" style="fill: rgb(38, 50, 56); transform-origin: 205.9px 100.405px 0px;" id="elrg3ac6hkey" class="animable"></path><path d="M212.07,100.4v1.45a.4.4,0,0,1-.39.4.43.43,0,0,1-.39-.32,1.69,1.69,0,0,1-2.24-.23,1.92,1.92,0,0,1,0-2.61,1.69,1.69,0,0,1,2.24-.23.41.41,0,0,1,.39-.32.4.4,0,0,1,.39.4Zm-.78,0a1.16,1.16,0,0,0-.29-.77.92.92,0,0,0-.69-.3.89.89,0,0,0-.69.3,1.19,1.19,0,0,0,0,1.53.91.91,0,0,0,.69.29.94.94,0,0,0,.69-.29A1.15,1.15,0,0,0,211.29,100.4Z" style="fill: rgb(38, 50, 56); transform-origin: 210.304px 100.395px 0px;" id="elm1of45tpg9i" class="animable"></path><path d="M216.55,100.08v1.77a.39.39,0,1,1-.78,0v-1.77a.76.76,0,0,0-.77-.75.74.74,0,0,0-.75.75v1.77a.25.25,0,0,1,0,.08.42.42,0,0,1-.39.32.39.39,0,0,1-.4-.4V98.93a.39.39,0,0,1,.4-.39.41.41,0,0,1,.36.23,1.49,1.49,0,0,1,.79-.23A1.55,1.55,0,0,1,216.55,100.08Z" style="fill: rgb(38, 50, 56); transform-origin: 215.005px 100.395px 0px;" id="eliaooo779n3" class="animable"></path><path d="M221.09,100.08v1.77a.39.39,0,0,1-.38.4.41.41,0,0,1-.4-.4v-1.77a.75.75,0,0,0-.77-.75.74.74,0,0,0-.74.75v1.77a.25.25,0,0,1,0,.08.42.42,0,0,1-.4.32.39.39,0,0,1-.39-.4V98.93a.39.39,0,0,1,.39-.39.41.41,0,0,1,.37.23,1.46,1.46,0,0,1,.78-.23A1.55,1.55,0,0,1,221.09,100.08Z" style="fill: rgb(38, 50, 56); transform-origin: 219.55px 100.395px 0px;" id="el0lvkkd90sur9" class="animable"></path><path d="M222.29,100.39a1.83,1.83,0,0,1,1.81-1.85,1.78,1.78,0,0,1,1.79,1.72v0s0,.06,0,.07a.36.36,0,0,1-.39.3h-2.35a.89.89,0,0,0,.25.49,1.1,1.1,0,0,0,.71.33,1.21,1.21,0,0,0,.77-.18.42.42,0,0,1,.56,0,.36.36,0,0,1,0,.49,1.9,1.9,0,0,1-1.33.49A1.85,1.85,0,0,1,222.29,100.39Zm.81-.36h2.1a1.23,1.23,0,0,0-1.1-.79A1,1,0,0,0,223.1,100Z" style="fill: rgb(38, 50, 56); transform-origin: 224.09px 100.395px 0px;" id="el9eisjojbcjb" class="animable"></path><path d="M227.2,101.19a.56.56,0,0,1,0,1.11.56.56,0,0,1,0-1.11Z" style="fill: rgb(38, 50, 56); transform-origin: 227.2px 101.745px 0px;" id="elb4oiebrzng" class="animable"></path><path d="M230.18,99a.41.41,0,0,1-.41.4h-.19v2.07a.41.41,0,0,1,.41.42.41.41,0,0,1-.41.41.83.83,0,0,1-.82-.83V99.35h-.22a.41.41,0,0,1,0-.81h.22V97.46a.41.41,0,0,1,.82,0v1.08h.19A.41.41,0,0,1,230.18,99Z" style="fill: rgb(38, 50, 56); transform-origin: 229.188px 99.675px 0px;" id="eltxft858x85" class="animable"></path><path d="M239.08,101.84a.41.41,0,0,1-.41.41H236a.39.39,0,0,1-.3-.14.41.41,0,0,1,0-.58l2.19-2a.94.94,0,0,0,.32-.72,1,1,0,0,0-.25-.64.91.91,0,0,0-.71-.31,1,1,0,0,0-.65.24l-.23.21a.39.39,0,0,1-.57,0,.4.4,0,0,1,0-.58l.22-.21a1.78,1.78,0,0,1,2.52.13,1.77,1.77,0,0,1-.13,2.51l-1.4,1.27h1.58A.41.41,0,0,1,239.08,101.84Z" style="fill: rgb(38, 50, 56); transform-origin: 237.33px 99.6545px 0px;" id="el2hq6j0ltv8o" class="animable"></path><path d="M241.14,101.84a.41.41,0,0,1-.81.1.36.36,0,0,1,0-.1V97.46a.42.42,0,0,1,.83,0v1.29a1.72,1.72,0,0,1,.79-.21,1.62,1.62,0,0,1,1.62,1.62v1.68a.41.41,0,0,1-.82,0v-1.68a.81.81,0,0,0-.8-.8.8.8,0,0,0-.79.8Z" style="fill: rgb(38, 50, 56); transform-origin: 241.948px 99.6826px 0px;" id="elqb6yuhqnrz" class="animable"></path><path d="M188.41,343.62a9.93,9.93,0,0,1-2.93,1.23,10.15,10.15,0,1,1,2.93-1.23Z" style="fill: rgb(38, 50, 56); transform-origin: 183.064px 334.992px 0px;" id="elqlhc4effpnc" class="animable"></path><path d="M186.16,333.83a3.09,3.09,0,1,1-3.09-3.09A3.09,3.09,0,0,1,186.16,333.83Z" style="fill: rgb(255, 255, 255); transform-origin: 183.07px 333.83px 0px;" id="elhk5b89nlbf" class="animable"></path><path d="M188.41,342.35v1.27a9.93,9.93,0,0,1-2.93,1.23,10.07,10.07,0,0,1-7.74-1.23v-1.27a5.34,5.34,0,1,1,10.67,0Z" style="fill: rgb(255, 255, 255); transform-origin: 183.075px 340.961px 0px;" id="el1g1e37s2etz" class="animable"></path><path d="M199.74,329.35a2.74,2.74,0,0,1,4.43-2.1.43.43,0,0,1,.08.6.44.44,0,0,1-.6.07,1.91,1.91,0,0,0-1.17-.41,1.82,1.82,0,0,0-1.34.55,1.76,1.76,0,0,0,0,2.56,1.86,1.86,0,0,0,1.34.54,2,2,0,0,0,1-.28v-1h-1.06a.43.43,0,0,1-.42-.43.41.41,0,0,1,.42-.41h1.48a.42.42,0,0,1,.43.41v1.64c0,.05,0,.08,0,.13l0,0h0a.34.34,0,0,1-.14.18,2.76,2.76,0,0,1-1.68.58A2.7,2.7,0,0,1,199.74,329.35Z" style="fill: rgb(38, 50, 56); transform-origin: 202.039px 329.324px 0px;" id="eljs2pr1oyus" class="animable"></path><path d="M209.14,330.16v1.46a.4.4,0,0,1-.39.39.41.41,0,0,1-.39-.32,1.67,1.67,0,0,1-1,.32,1.75,1.75,0,0,1-1.27-.54,1.94,1.94,0,0,1-.5-1.31,1.89,1.89,0,0,1,.5-1.3,1.73,1.73,0,0,1,1.27-.56,1.67,1.67,0,0,1,1,.33.4.4,0,0,1,.39-.33.4.4,0,0,1,.39.4Zm-.79,0a1.07,1.07,0,0,0-.29-.76.91.91,0,0,0-.68-.31.9.9,0,0,0-.69.31,1.07,1.07,0,0,0-.29.76,1.13,1.13,0,0,0,.29.77.94.94,0,0,0,.69.28,1,1,0,0,0,.68-.28A1.13,1.13,0,0,0,208.35,330.16Z" style="fill: rgb(38, 50, 56); transform-origin: 207.365px 330.155px 0px;" id="eldorjqyllonc" class="animable"></path><path d="M210.6,330.16h0v-2.94a.4.4,0,0,1,.8,0v1.39a1.79,1.79,0,0,1,1-.31,1.86,1.86,0,1,1-1,3.39.4.4,0,0,1-.79-.08Zm.8,0a1.1,1.1,0,0,0,.3.74,1,1,0,0,0,.7.3,1,1,0,0,0,.7-.3,1.1,1.1,0,0,0,0-1.49,1,1,0,0,0-.7-.3,1,1,0,0,0-.7.3A1.1,1.1,0,0,0,211.4,330.16Z" style="fill: rgb(38, 50, 56); transform-origin: 212.458px 329.42px 0px;" id="eldybpwchhfid" class="animable"></path><path d="M218.1,328.69v2.81a1.75,1.75,0,0,1-1.77,1.77,1.61,1.61,0,0,1-.76-.19.39.39,0,0,1-.2-.52.42.42,0,0,1,.53-.17,1,1,0,0,0,.43.11,1,1,0,0,0,.93-.68,1.44,1.44,0,0,1-.71.18,1.56,1.56,0,0,1-1.55-1.56v-1.75a.4.4,0,0,1,.39-.39.38.38,0,0,1,.39.39v1.75a.77.77,0,0,0,1.54,0v-1.75a.38.38,0,0,1,.38-.39A.39.39,0,0,1,218.1,328.69Z" style="fill: rgb(38, 50, 56); transform-origin: 216.55px 330.785px 0px;" id="elphwcwoumfgg" class="animable"></path><path d="M218.8,332.85a.35.35,0,0,1,.35-.35h4.48a.35.35,0,0,1,.35.35.35.35,0,0,1-.35.35h-4.48A.35.35,0,0,1,218.8,332.85Z" style="fill: rgb(38, 50, 56); transform-origin: 221.39px 332.85px 0px;" id="el8wptv4o6xq2" class="animable"></path><path d="M226.65,328.86a1.86,1.86,0,0,1,.54,1.31,1.84,1.84,0,0,1-1.84,1.84h0a1.81,1.81,0,0,1-1.29-.54.42.42,0,0,1,0-.6.42.42,0,0,1,.59,0,1,1,0,0,0,1.42,0,1,1,0,0,0,.29-.7,1,1,0,0,0-.29-.71,1,1,0,0,0-.71-.29,1,1,0,0,0-.71.29.42.42,0,0,1-.59,0l-.08-.1s0,0,0,0a.05.05,0,0,0,0,0v-.05h0a.28.28,0,0,1,0-.13l.22-1.92a.44.44,0,0,1,.19-.3h0l0,0a.41.41,0,0,1,.19,0h2.19a.41.41,0,0,1,.42.42.42.42,0,0,1-.42.42H225l-.09.73a2.07,2.07,0,0,1,.49-.07A1.83,1.83,0,0,1,226.65,328.86Z" style="fill: rgb(38, 50, 56); transform-origin: 225.562px 329.479px 0px;" id="el3upj5v9ay91" class="animable"></path><path d="M206.87,339.2a3.53,3.53,0,1,1-3.53-3.53A3.52,3.52,0,0,1,206.87,339.2Z" style="fill: rgb(227, 188, 227); transform-origin: 203.34px 339.2px 0px;" id="el1lwfbxvzrswh" class="animable"></path><path d="M202.42,338.71a3.9,3.9,0,0,1-1.1,1.12,3.92,3.92,0,0,1-1.09-1.12c-.37-.67-.17-1.35.36-1.35s.73.73.73.73.16-.73.74-.73S202.79,338,202.42,338.71Z" style="fill: rgb(221, 106, 87); transform-origin: 201.331px 338.595px 0px;" id="elz58ryhnr9tn" class="animable"></path><path d="M206.46,338.71a3.9,3.9,0,0,1-1.1,1.12,3.92,3.92,0,0,1-1.09-1.12c-.37-.67-.17-1.35.36-1.35s.73.73.73.73.16-.73.74-.73S206.83,338,206.46,338.71Z" style="fill: rgb(221, 106, 87); transform-origin: 205.371px 338.595px 0px;" id="elerdilv8kk2d" class="animable"></path><path d="M202.43,339.2h1.83a.94.94,0,0,1-1.83,0Z" style="fill: rgb(38, 50, 56); transform-origin: 203.345px 339.562px 0px;" id="el2qg98m5bptk" class="animable"></path><path d="M215.9,339.2a3.53,3.53,0,1,1-3.52-3.53A3.52,3.52,0,0,1,215.9,339.2Z" style="fill: rgb(227, 188, 227); transform-origin: 212.37px 339.2px 0px;" id="elb5wdwxtq8ed" class="animable"></path><path d="M211.45,338.71a3.92,3.92,0,0,1-1.09,1.12,3.9,3.9,0,0,1-1.1-1.12c-.37-.67-.16-1.35.36-1.35s.74.73.74.73.15-.73.73-.73S211.82,338,211.45,338.71Z" style="fill: rgb(221, 106, 87); transform-origin: 210.362px 338.595px 0px;" id="el74klvqi0ofb" class="animable"></path><path d="M215.49,338.71a3.92,3.92,0,0,1-1.09,1.12,3.9,3.9,0,0,1-1.1-1.12c-.36-.67-.16-1.35.36-1.35s.74.73.74.73.15-.73.73-.73S215.86,338,215.49,338.71Z" style="fill: rgb(221, 106, 87); transform-origin: 214.405px 338.595px 0px;" id="elmput8k1hlnd" class="animable"></path><path d="M211.47,339.2h1.82a.94.94,0,0,1-1.82,0Z" style="fill: rgb(38, 50, 56); transform-origin: 212.38px 339.552px 0px;" id="el82ydgrkdpbq" class="animable"></path><path d="M188.41,368.68a9.66,9.66,0,0,1-2.93,1.22,10.15,10.15,0,0,1-12.26-7.44,10.15,10.15,0,1,1,15.19,6.22Z" style="fill: rgb(69, 90, 100); transform-origin: 183.078px 360.041px 0px;" id="elecyxgynsgtd" class="animable"></path><path d="M186.16,358.89a3.09,3.09,0,1,1-3.09-3.09A3.09,3.09,0,0,1,186.16,358.89Z" style="fill: rgb(255, 255, 255); transform-origin: 183.07px 358.89px 0px;" id="elbt1luv385c" class="animable"></path><path d="M188.41,367.41v1.27a9.66,9.66,0,0,1-2.93,1.22,10,10,0,0,1-7.74-1.23v-1.26a5.34,5.34,0,1,1,10.67,0Z" style="fill: rgb(255, 255, 255); transform-origin: 183.075px 366.019px 0px;" id="elxvkcrxcmub" class="animable"></path><path d="M201.71,355.05h-.92v1.61a.4.4,0,0,1-.41.4.41.41,0,0,1-.41-.4v-4.38a.41.41,0,0,1,.41-.41h1.33a1.59,1.59,0,1,1,0,3.18Zm-.92-.83h.92a.76.76,0,1,0,0-1.52h-.92Z" style="fill: rgb(38, 50, 56); transform-origin: 201.637px 354.465px 0px;" id="elqfc5399fq1s" class="animable"></path><path d="M207.35,355.22v1.45a.39.39,0,0,1-.39.39.42.42,0,0,1-.39-.31,1.66,1.66,0,0,1-1,.31,1.69,1.69,0,0,1-1.26-.54,1.92,1.92,0,0,1,0-2.61,1.7,1.7,0,0,1,1.26-.55,1.67,1.67,0,0,1,1,.32.41.41,0,0,1,.39-.32.39.39,0,0,1,.39.4Zm-.78,0a1.16,1.16,0,0,0-.29-.77.92.92,0,0,0-.69-.3.89.89,0,0,0-.69.3,1.19,1.19,0,0,0,0,1.53.91.91,0,0,0,.69.29.94.94,0,0,0,.69-.29A1.15,1.15,0,0,0,206.57,355.22Z" style="fill: rgb(38, 50, 56); transform-origin: 205.574px 355.21px 0px;" id="elam0ou3u7b8g" class="animable"></path><path d="M210.28,357.06a1.55,1.55,0,0,1-1.55-1.54v-1.77a.4.4,0,0,1,.4-.39.39.39,0,0,1,.39.39v1.77a.75.75,0,0,0,.76.76.76.76,0,0,0,.77-.76v-1.77a.39.39,0,0,1,.39-.39.41.41,0,0,1,.4.39v1.77A1.56,1.56,0,0,1,210.28,357.06Z" style="fill: rgb(38, 50, 56); transform-origin: 210.285px 355.21px 0px;" id="el5ep2jdkqozp" class="animable"></path><path d="M213.59,351.87a.41.41,0,0,1,.41.41v4.38a.41.41,0,0,1-.82,0v-4.38A.41.41,0,0,1,213.59,351.87Z" style="fill: rgb(38, 50, 56); transform-origin: 213.59px 354.47px 0px;" id="eliwdfm452co" class="animable"></path><path d="M215.43,351.87a.42.42,0,0,1,.42.41v4.38a.41.41,0,0,1-.42.4.4.4,0,0,1-.4-.4v-4.38A.41.41,0,0,1,215.43,351.87Z" style="fill: rgb(38, 50, 56); transform-origin: 215.44px 354.465px 0px;" id="elpgjbmkqpjh" class="animable"></path><path d="M216.9,355.21a1.82,1.82,0,0,1,1.81-1.85,1.77,1.77,0,0,1,1.78,1.72v0s0,.06,0,.07a.35.35,0,0,1-.38.3h-2.36a1,1,0,0,0,.25.49,1.21,1.21,0,0,0,.72.33,1.24,1.24,0,0,0,.77-.18.4.4,0,0,1,.55,0,.35.35,0,0,1,0,.49,1.87,1.87,0,0,1-1.32.48A1.82,1.82,0,0,1,216.9,355.21Zm.8-.36h2.1a1.2,1.2,0,0,0-1.09-.79A1,1,0,0,0,217.7,354.85Z" style="fill: rgb(38, 50, 56); transform-origin: 218.695px 355.211px 0px;" id="eln6p1cewiry" class="animable"></path><path d="M223.05,353.76a.42.42,0,0,1-.42.41h-.19v2.07a.41.41,0,0,1,.41.42.4.4,0,0,1-.41.4.82.82,0,0,1-.82-.82v-2.07h-.21a.41.41,0,0,1-.41-.41.4.4,0,0,1,.41-.4h.21v-1.08a.41.41,0,0,1,.42-.41.4.4,0,0,1,.4.41v1.08h.19A.41.41,0,0,1,223.05,353.76Z" style="fill: rgb(38, 50, 56); transform-origin: 222.025px 354.465px 0px;" id="elfr69v9cw68t" class="animable"></path><path d="M225.55,353.76a.42.42,0,0,1-.42.41H225v2.07a.41.41,0,0,1,.4.42.39.39,0,0,1-.4.4.83.83,0,0,1-.83-.82v-2.07h-.21a.41.41,0,0,1-.41-.41.4.4,0,0,1,.41-.4h.21v-1.08a.41.41,0,0,1,.42-.41.41.41,0,0,1,.41.41v1.08h.18A.41.41,0,0,1,225.55,353.76Z" style="fill: rgb(38, 50, 56); transform-origin: 224.55px 354.465px 0px;" id="eljxsjtotz69d" class="animable"></path><path d="M226.29,355.21a1.83,1.83,0,0,1,1.81-1.85,1.78,1.78,0,0,1,1.79,1.72v0s0,.06,0,.07a.36.36,0,0,1-.39.3h-2.36a1,1,0,0,0,.26.49,1.15,1.15,0,0,0,.71.33,1.23,1.23,0,0,0,.77-.18.42.42,0,0,1,.56,0,.36.36,0,0,1,0,.49,1.89,1.89,0,0,1-1.33.48A1.83,1.83,0,0,1,226.29,355.21Zm.81-.36h2.1a1.23,1.23,0,0,0-1.1-.79A1,1,0,0,0,227.1,354.85Z" style="fill: rgb(38, 50, 56); transform-origin: 228.09px 355.211px 0px;" id="elokmx5k7hjgs" class="animable"></path><path d="M234.21,356.66a.4.4,0,0,1-.41.4h-2.64a.38.38,0,0,1-.3-.13.41.41,0,0,1,0-.58l2.2-2a1,1,0,0,0,.31-.72.92.92,0,0,0-.25-.64.91.91,0,0,0-.71-.31,1,1,0,0,0-.64.24l-.23.21a.41.41,0,1,1-.55-.61l.23-.21a1.75,1.75,0,0,1,1.19-.46,1.78,1.78,0,0,1,1.32.59,1.75,1.75,0,0,1,.46,1.19,1.79,1.79,0,0,1-.58,1.32l-1.41,1.27h1.58A.41.41,0,0,1,234.21,356.66Z" style="fill: rgb(38, 50, 56); transform-origin: 232.476px 354.455px 0px;" id="el41r5eye9s5e" class="animable"></path><path d="M238.05,353.91a1.83,1.83,0,0,1,.54,1.3,1.84,1.84,0,0,1-1.85,1.85,1.89,1.89,0,0,1-1.3-.54.42.42,0,0,1,.6-.6.94.94,0,0,0,.7.29,1,1,0,0,0,.71-.29,1,1,0,0,0,.3-.71,1,1,0,0,0-.3-.7,1,1,0,0,0-.7-.3.34.34,0,0,1-.3-.13h0a.42.42,0,0,1,0-.59l.76-.78H236a.42.42,0,1,1,0-.83h2.19a.41.41,0,0,1,.42.41.42.42,0,0,1-.05.2.27.27,0,0,1-.08.1l-.93,1A1.86,1.86,0,0,1,238.05,353.91Z" style="fill: rgb(38, 50, 56); transform-origin: 236.963px 354.468px 0px;" id="elpo1biiid1v7" class="animable"></path><path d="M200.16,366h0a.18.18,0,0,1-.18-.18V361a.18.18,0,0,1,.36,0v4.65h2.49a.18.18,0,0,1,0,.36Z" style="fill: rgb(38, 50, 56); transform-origin: 201.494px 363.415px 0px;" id="elev0qits051f" class="animable"></path><path d="M206.13,360.7a2.64,2.64,0,1,1-2.51,2.64A2.56,2.56,0,0,1,206.13,360.7Zm0,4.91a2.27,2.27,0,1,0-2.15-2.27A2.21,2.21,0,0,0,206.13,365.61Z" style="fill: rgb(38, 50, 56); transform-origin: 206.259px 363.337px 0px;" id="elchaf94b0mvo" class="animable"></path><path d="M211.57,365.87s0,0,0,0h0l-2-4.78a.2.2,0,0,1,.1-.24.18.18,0,0,1,.24.09l1.85,4.42,1.86-4.42a.17.17,0,0,1,.23-.09.19.19,0,0,1,.1.24l-2,4.75a.18.18,0,0,1-.11.14h0l-.07,0h-.07A.11.11,0,0,1,211.57,365.87Z" style="fill: rgb(38, 50, 56); transform-origin: 211.761px 363.408px 0px;" id="elrslt69mtkna" class="animable"></path><path d="M215.2,361a.19.19,0,0,1,.18-.18h2.67a.18.18,0,0,1,0,.36h-2.48v2.06h2.17a.18.18,0,0,1,0,.36h-2.17v2.05h2.48a.18.18,0,0,1,0,.36h-2.68a.18.18,0,0,1-.17-.18Z" style="fill: rgb(38, 50, 56); transform-origin: 216.714px 363.415px 0px;" id="elutirgfmy3r" class="animable"></path><path d="M221.88,361a.18.18,0,0,1,.36,0v4.83a.18.18,0,0,1-.36,0Z" style="fill: rgb(38, 50, 56); transform-origin: 222.06px 363.415px 0px;" id="elry9vwnv25rf" class="animable"></path><path d="M225.43,361.14h-1.56a.18.18,0,1,1,0-.36h3.49a.18.18,0,0,1,0,.36h-1.57v4.65a.18.18,0,0,1-.18.18.19.19,0,0,1-.18-.18Z" style="fill: rgb(38, 50, 56); transform-origin: 225.613px 363.375px 0px;" id="el48dfgfiq2bv" class="animable"></path><path d="M228.82,361a.18.18,0,0,1,.36,0v3.72a.18.18,0,0,1-.36,0Zm0,4.65a.18.18,0,0,1,.36,0v.18a.18.18,0,0,1-.36,0Z" style="fill: rgb(38, 50, 56); transform-origin: 229px 363.415px 0px;" id="el9o9bz36sbd8" class="animable"></path><path d="M188.41,393.73a9.93,9.93,0,0,1-2.93,1.23,10.15,10.15,0,1,1,2.93-1.23Z" style="fill: rgb(227, 188, 227); transform-origin: 183.064px 385.102px 0px;" id="elwylwnwdr7d" class="animable"></path><path d="M186.16,383.94a3.09,3.09,0,1,1-3.09-3.09A3.09,3.09,0,0,1,186.16,383.94Z" style="fill: rgb(255, 255, 255); transform-origin: 183.07px 383.94px 0px;" id="el7qcsnbyd116" class="animable"></path><path d="M188.41,392.46v1.27a9.93,9.93,0,0,1-2.93,1.23,10.11,10.11,0,0,1-7.74-1.23v-1.27a5.34,5.34,0,1,1,10.67,0Z" style="fill: rgb(255, 255, 255); transform-origin: 183.075px 391.07px 0px;" id="elzbpfr9wpll" class="animable"></path><path d="M200.36,380.59a1,1,0,0,0,1,.71,1,1,0,0,0,1-1v-2.94a.41.41,0,1,1,.82,0v2.94a1.84,1.84,0,0,1-3.59.56.39.39,0,0,1,.25-.51A.41.41,0,0,1,200.36,380.59Z" style="fill: rgb(38, 50, 56); transform-origin: 201.373px 379.541px 0px;" id="eltzbmguakau" class="animable"></path><path d="M205.28,381.71a.41.41,0,0,1-.42.41.41.41,0,0,1-.39-.3.36.36,0,0,1,0-.11v-4.37a.42.42,0,0,1,.83,0v1.29a1.61,1.61,0,0,1,.79-.22,1.63,1.63,0,0,1,1.62,1.63v1.67a.41.41,0,1,1-.82,0V380a.82.82,0,0,0-.8-.81.81.81,0,0,0-.79.81Z" style="fill: rgb(38, 50, 56); transform-origin: 206.088px 379.552px 0px;" id="el7xfx8igri94" class="animable"></path><path d="M209.34,381.58a1.86,1.86,0,0,1-.51-1.31,1.93,1.93,0,0,1,.51-1.3,1.78,1.78,0,0,1,1.28-.56,1.68,1.68,0,0,1,1.24.56,1.89,1.89,0,0,1,.52,1.3,1.83,1.83,0,0,1-.52,1.31,1.64,1.64,0,0,1-1.24.56A1.75,1.75,0,0,1,209.34,381.58Zm.3-1.31a1.17,1.17,0,0,0,.27.79,1,1,0,0,0,.71.27,1,1,0,0,0,.68-.27,1.18,1.18,0,0,0,.29-.79,1.15,1.15,0,0,0-.29-.77,1.07,1.07,0,0,0-.68-.28,1.08,1.08,0,0,0-.71.28A1.13,1.13,0,0,0,209.64,380.27Z" style="fill: rgb(38, 50, 56); transform-origin: 210.605px 380.275px 0px;" id="eld8pp0hqj5c" class="animable"></path><path d="M216.73,380v1.78a.39.39,0,0,1-.38.39.41.41,0,0,1-.4-.39V380a.76.76,0,0,0-.77-.74.74.74,0,0,0-.74.74v1.78a.11.11,0,0,1,0,.07.4.4,0,0,1-.39.32.39.39,0,0,1-.39-.39V378.8a.39.39,0,0,1,.39-.39.41.41,0,0,1,.37.23,1.46,1.46,0,0,1,.78-.23A1.56,1.56,0,0,1,216.73,380Z" style="fill: rgb(38, 50, 56); transform-origin: 215.195px 380.29px 0px;" id="el4zpd8b7k1ap" class="animable"></path><path d="M218.65,381.07a.56.56,0,0,1,.56.55.56.56,0,1,1-.56-.55Z" style="fill: rgb(38, 50, 56); transform-origin: 218.65px 381.63px 0px;" id="elljf0q16kcqh" class="animable"></path><path d="M220,381.71v-4.34a.41.41,0,0,1,.82,0v2.13l2.4-2.41a.41.41,0,1,1,.58.58l-1.63,1.62,1.65,2.16a.41.41,0,0,1-.06.57.39.39,0,0,1-.26.1.4.4,0,0,1-.31-.15l-1.6-2.1-.77.79v1a.41.41,0,1,1-.82,0Z" style="fill: rgb(38, 50, 56); transform-origin: 221.96px 379.54px 0px;" id="el8483ajdfpgl" class="animable"></path><path d="M201.39,388.53l-1.74-2.38a.2.2,0,0,1,0-.25.17.17,0,0,1,.25,0l1.63,2.23,1.63-2.23a.17.17,0,0,1,.25,0,.18.18,0,0,1,0,.25l-1.74,2.37v2.33a.17.17,0,0,1-.18.17.18.18,0,0,1-.18-.17Z" style="fill: rgb(38, 50, 56); transform-origin: 201.533px 388.433px 0px;" id="elr5itxa68e3" class="animable"></path><path d="M205.1,387.39a1.82,1.82,0,1,1-1.72,1.82A1.78,1.78,0,0,1,205.1,387.39Zm0,3.28a1.47,1.47,0,1,0-1.36-1.46A1.43,1.43,0,0,0,205.1,390.67Z" style="fill: rgb(38, 50, 56); transform-origin: 205.2px 389.207px 0px;" id="elbauflnycw8c" class="animable"></path><path d="M208,387.56a.18.18,0,0,1,.18-.18.19.19,0,0,1,.18.18v2a1.12,1.12,0,1,0,2.23,0v-2a.19.19,0,0,1,.18-.18.18.18,0,0,1,.19.18v2a1.48,1.48,0,1,1-3,0Z" style="fill: rgb(38, 50, 56); transform-origin: 209.46px 389.22px 0px;" id="elsxo22y8rf8" class="animable"></path><path d="M214.9,386a.18.18,0,1,1,.36,0v4.84a.18.18,0,0,1-.36,0Z" style="fill: rgb(38, 50, 56); transform-origin: 215.08px 388.42px 0px;" id="elz5hn3e26ahq" class="animable"></path><path d="M218.25,387.39a1.82,1.82,0,1,1-1.73,1.82A1.78,1.78,0,0,1,218.25,387.39Zm0,3.28a1.47,1.47,0,1,0-1.37-1.46A1.42,1.42,0,0,0,218.25,390.67Z" style="fill: rgb(38, 50, 56); transform-origin: 218.34px 389.208px 0px;" id="elygjadsl3lie" class="animable"></path><path d="M222.88,387.39a1.82,1.82,0,1,1-1.72,1.82A1.78,1.78,0,0,1,222.88,387.39Zm0,3.28a1.47,1.47,0,1,0-1.36-1.46A1.43,1.43,0,0,0,222.88,390.67Z" style="fill: rgb(38, 50, 56); transform-origin: 222.98px 389.207px 0px;" id="elfvb08meqwtw" class="animable"></path><path d="M226,386a.18.18,0,0,1,.36,0v3.49l2.15-2.14a.19.19,0,0,1,.26,0,.18.18,0,0,1,0,.25l-1.41,1.4,1.41,1.72a.19.19,0,0,1,0,.26.18.18,0,0,1-.12,0,.15.15,0,0,1-.14-.06l-1.4-1.69-.74.74v.84a.18.18,0,0,1-.36,0Z" style="fill: rgb(38, 50, 56); transform-origin: 227.411px 388.405px 0px;" id="el0s6z07z8w59" class="animable"></path><path d="M235.52,390.73a1.7,1.7,0,0,1-1.71,1.71,1.87,1.87,0,0,1-.75-.17A.2.2,0,0,1,233,392a.17.17,0,0,1,.24-.08,1.28,1.28,0,0,0,.59.13,1.35,1.35,0,0,0,1.36-1.35v-.44a1.65,1.65,0,0,1-1.36.71,1.81,1.81,0,0,1,0-3.61,1.67,1.67,0,0,1,1.36.71v-.53a.18.18,0,0,1,.18-.18.18.18,0,0,1,.17.18Zm-.35-1.54a1.36,1.36,0,1,0-1.36,1.46A1.39,1.39,0,0,0,235.17,389.19Z" style="fill: rgb(38, 50, 56); transform-origin: 233.847px 389.9px 0px;" id="eludu7nfn5hda" class="animable"></path><path d="M237.25,387.58a.17.17,0,0,1,.18-.18.17.17,0,0,1,.17.18v.8a.47.47,0,0,1,.06-.09,1.74,1.74,0,0,1,1.45-.89.17.17,0,0,1,.18.18.18.18,0,0,1-.18.17,1.29,1.29,0,0,0-1.05.6,3,3,0,0,0-.44.84.1.1,0,0,0,0,.06v1.6a.17.17,0,0,1-.17.17.17.17,0,0,1-.18-.17Z" style="fill: rgb(38, 50, 56); transform-origin: 238.27px 389.21px 0px;" id="elsexwz4k0umk" class="animable"></path><path d="M239.88,389.21a1.76,1.76,0,0,1,3.51-.13h0v0a.16.16,0,0,1-.18.16h-3a1.43,1.43,0,0,0,1.41,1.4,1.36,1.36,0,0,0,1.17-.66.17.17,0,0,1,.24-.06.19.19,0,0,1,.06.25,1.72,1.72,0,0,1-1.47.82A1.78,1.78,0,0,1,239.88,389.21Zm.37-.29H243a1.38,1.38,0,0,0-1.36-1.17A1.43,1.43,0,0,0,240.25,388.92Z" style="fill: rgb(38, 50, 56); transform-origin: 241.635px 389.245px 0px;" id="elocnjycm9li9" class="animable"></path><path d="M247.7,387.57v3.28a.18.18,0,0,1-.18.17.18.18,0,0,1-.18-.17v-.55A1.68,1.68,0,0,1,246,391a1.82,1.82,0,0,1,0-3.63,1.67,1.67,0,0,1,1.36.71v-.53a.18.18,0,0,1,.18-.18A.17.17,0,0,1,247.7,387.57Zm-.36,1.64a1.36,1.36,0,1,0-1.36,1.46A1.41,1.41,0,0,0,247.34,389.21Z" style="fill: rgb(38, 50, 56); transform-origin: 246.009px 389.195px 0px;" id="elgb03wmnhicb" class="animable"></path><path d="M250.51,387.57a.19.19,0,0,1-.17.18h-.47v2.64a.29.29,0,0,0,.27.27.21.21,0,0,1,.18.19.2.2,0,0,1-.18.17.61.61,0,0,1-.64-.63v-2.64h-.45c-.18,0-.18-.09-.18-.18s0-.18.18-.18h.45V386a.19.19,0,0,1,.18-.18.2.2,0,0,1,.19.18v1.35h.47A.19.19,0,0,1,250.51,387.57Z" style="fill: rgb(38, 50, 56); transform-origin: 249.691px 388.42px 0px;" id="elwnrkf5c51fb" class="animable"></path><path d="M252.21,386a.18.18,0,0,1,.18-.18.18.18,0,0,1,.19.18v3.72a.18.18,0,0,1-.19.19.18.18,0,0,1-.18-.19Zm0,4.66a.18.18,0,0,1,.18-.18.18.18,0,0,1,.19.18v.18a.18.18,0,0,1-.19.17.18.18,0,0,1-.18-.17Z" style="fill: rgb(38, 50, 56); transform-origin: 252.395px 388.415px 0px;" id="elx7d94pw2gf" class="animable"></path><path d="M185.29,408.76a2.77,2.77,0,0,1,1.68.57.19.19,0,0,1,0,.26.18.18,0,0,1-.26,0,2.36,2.36,0,0,0-1.45-.51,2.27,2.27,0,1,0,0,4.54,2.25,2.25,0,0,0,1.44-.5.19.19,0,0,1,.24.3,2.77,2.77,0,0,1-1.68.57,2.64,2.64,0,1,1,0-5.27Z" style="fill: rgb(38, 50, 56); transform-origin: 184.739px 411.355px 0px;" id="elvmfbclya1za" class="animable"></path><path d="M189.94,410.39a1.82,1.82,0,1,1-1.72,1.82A1.78,1.78,0,0,1,189.94,410.39Zm0,3.28a1.47,1.47,0,1,0-1.37-1.46A1.42,1.42,0,0,0,189.94,413.67Z" style="fill: rgb(38, 50, 56); transform-origin: 190.04px 412.207px 0px;" id="elkas2566m1gh" class="animable"></path><path d="M198.22,411.88a1.12,1.12,0,1,0-2.24,0v2h0v0a.2.2,0,0,1-.09.09l-.09,0h0l-.05,0,0,0,0,0,0,0h0v0a0,0,0,0,0,0,0v-2a1.12,1.12,0,1,0-2.24,0v2a.18.18,0,0,1-.08.15l0,0h-.08a.23.23,0,0,1-.15-.14v-3.32a.18.18,0,0,1,.17-.17.17.17,0,0,1,.18.17v.35a1.48,1.48,0,0,1,2.42.25,1.5,1.5,0,0,1,1.3-.77,1.48,1.48,0,0,1,1.48,1.48v2a.18.18,0,0,1-.18.18.18.18,0,0,1-.17-.18Z" style="fill: rgb(38, 50, 56); transform-origin: 195.975px 412.32px 0px;" id="el5rnrrb8ct1y" class="animable"></path><path d="M205.28,411.88a1.15,1.15,0,0,0-1.13-1.13,1.13,1.13,0,0,0-1.12,1.13v2h0v0a.18.18,0,0,1-.08.09l-.09,0h-.06l0,0,0,0,0,0,0,0h0v0a0,0,0,0,0,0,0v-2a1.12,1.12,0,1,0-2.24,0v2a.18.18,0,0,1-.08.15l0,0h-.07a.19.19,0,0,1-.15-.14v-3.32a.17.17,0,0,1,.17-.17.17.17,0,0,1,.18.17v.35a1.46,1.46,0,0,1,1.12-.52,1.49,1.49,0,0,1,1.3.77,1.5,1.5,0,0,1,1.3-.77,1.48,1.48,0,0,1,1.48,1.48v2a.19.19,0,0,1-.18.18.18.18,0,0,1-.17-.18Z" style="fill: rgb(38, 50, 56); transform-origin: 203.035px 412.32px 0px;" id="el53gr90bnhjm" class="animable"></path><path d="M206.88,412.22a1.79,1.79,0,0,1,1.76-1.83,1.77,1.77,0,0,1,1.75,1.69h0v0a.17.17,0,0,1-.18.17h-3a1.43,1.43,0,0,0,1.41,1.39,1.36,1.36,0,0,0,1.17-.66.18.18,0,0,1,.24-.06.19.19,0,0,1,.06.25,1.73,1.73,0,0,1-1.47.83A1.79,1.79,0,0,1,206.88,412.22Zm.37-.29H210a1.4,1.4,0,0,0-1.37-1.18A1.43,1.43,0,0,0,207.25,411.93Z" style="fill: rgb(38, 50, 56); transform-origin: 208.635px 412.195px 0px;" id="elxe5icnl4ltk" class="animable"></path><path d="M214.25,411.88a1.13,1.13,0,0,0-1.12-1.13,1.16,1.16,0,0,0-1.13,1.13v2a.11.11,0,0,1,0,.08.19.19,0,0,1-.14.07h0a.24.24,0,0,1-.12-.1v0a0,0,0,0,0,0,0v-3.31a.18.18,0,0,1,.18-.18.17.17,0,0,1,.17.18v.35a1.48,1.48,0,0,1,2.61.95v2a.19.19,0,0,1-.18.18.18.18,0,0,1-.18-.18Z" style="fill: rgb(38, 50, 56); transform-origin: 213.22px 412.27px 0px;" id="elex4fyp267ov" class="animable"></path><path d="M217.47,410.57a.19.19,0,0,1-.18.18h-.46v2.65a.28.28,0,0,0,.26.26.21.21,0,0,1,.19.19.2.2,0,0,1-.19.18.62.62,0,0,1-.63-.63v-2.65H216c-.17,0-.17-.09-.17-.18s0-.18.17-.18h.46V409a.18.18,0,0,1,.17-.18.21.21,0,0,1,.2.18v1.35h.46A.19.19,0,0,1,217.47,410.57Z" style="fill: rgb(38, 50, 56); transform-origin: 216.651px 411.425px 0px;" id="elw4cknss3e6k" class="animable"></path><rect x="259.25" y="93.86" width="25.98" height="12.27" style="fill: rgb(227, 188, 227); transform-origin: 272.24px 99.995px 0px;" id="ell01kyms9krq" class="animable"></rect><path d="M264.9,102V97.67a.41.41,0,0,1,.82,0v4h2a.41.41,0,0,1,0,.82h-2.42A.41.41,0,0,1,264.9,102Z" style="fill: rgb(255, 255, 255); transform-origin: 266.511px 99.875px 0px;" id="elmvfvtdpnrh" class="animable"></path><path d="M269.16,97.67a.41.41,0,0,1,.41-.41.42.42,0,0,1,.42.41V102a.42.42,0,0,1-.42.41.41.41,0,0,1-.41-.41Z" style="fill: rgb(255, 255, 255); transform-origin: 269.575px 99.835px 0px;" id="elwdat80hsyhe" class="animable"></path><path d="M273.07,102.38l-.06,0v0l0,0h0a.11.11,0,0,0,0-.06l-1.82-4.33a.41.41,0,1,1,.75-.31L273.3,101l1.45-3.43a.4.4,0,0,1,.53-.22.41.41,0,0,1,.23.53l-1.84,4.33a.11.11,0,0,1,0,.06h0l0,0s0,0,0,0l0,0h0s0,0-.06,0h0l-.06,0h-.18l0,0a0,0,0,0,0,0,0h0l-.07,0Z" style="fill: rgb(255, 255, 255); transform-origin: 273.335px 99.8487px 0px;" id="el43aircvwzyt" class="animable"></path><path d="M276.72,102V97.67a.41.41,0,0,1,.41-.41h2.42a.41.41,0,0,1,.41.41.42.42,0,0,1-.41.42h-2v1.35h1.73a.42.42,0,0,1,0,.83h-1.73v1.36h2a.41.41,0,0,1,0,.82h-2.42A.41.41,0,0,1,276.72,102Z" style="fill: rgb(255, 255, 255); transform-origin: 278.339px 99.855px 0px;" id="el488vpq4odbj" class="animable"></path><rect x="290.09" y="93.86" width="25.98" height="12.27" style="fill: rgb(199, 199, 199); transform-origin: 303.08px 99.995px 0px;" id="elxh6uyvw4w2i" class="animable"></rect><path d="M299.94,99.37a8.71,8.71,0,0,0-3.84-1.16,5,5,0,0,0-1.89.3,15.73,15.73,0,0,0-1.91.86,4.57,4.57,0,0,1,1.58-1.57,4.22,4.22,0,0,1,2.24-.59,4.64,4.64,0,0,1,2.21.62A4.33,4.33,0,0,1,299.94,99.37Z" style="fill: rgb(255, 255, 255); transform-origin: 296.12px 98.2896px 0px;" id="elo7w6mph5hx" class="animable"></path><path d="M303.21,101.73a.19.19,0,0,1,0-.26.2.2,0,0,1,.27,0,1.39,1.39,0,1,0,1-2.37,1.34,1.34,0,0,0-1,.41.19.19,0,0,1-.26,0,.13.13,0,0,1-.05-.06h0v0a.13.13,0,0,1,0-.06s0,0,0,0l.25-2.09a.16.16,0,0,1,.07-.13.18.18,0,0,1,.12,0H306a.19.19,0,0,1,.18.19.17.17,0,0,1-.18.18h-2.26L303.58,99a1.71,1.71,0,0,1,.88-.24,1.69,1.69,0,0,1,1.24.51,1.77,1.77,0,0,1,0,2.49,1.75,1.75,0,0,1-2.49,0Z" style="fill: rgb(255, 255, 255); transform-origin: 304.685px 99.7199px 0px;" id="elcaw5ft1xhes" class="animable"></path><path d="M308.43,97.58l-.73.43a.14.14,0,0,1-.09,0,.19.19,0,0,1-.16-.09.17.17,0,0,1,.07-.24l1-.61a.18.18,0,0,1,.25.07.19.19,0,0,1,0,.13v4.77a.18.18,0,0,1-.36,0Z" style="fill: rgb(255, 255, 255); transform-origin: 308.104px 99.6317px 0px;" id="elgj3004m6nc7" class="animable"></path><path d="M310.07,101.93l2.42-2.19a1.32,1.32,0,0,0,.1-1.89,1.36,1.36,0,0,0-1-.43,1.33,1.33,0,0,0-.9.34l-.26.23a.17.17,0,0,1-.25,0,.18.18,0,0,1,0-.25l.25-.24a1.74,1.74,0,0,1,1.15-.44,1.7,1.7,0,0,1,1.69,1.7,1.73,1.73,0,0,1-.55,1.26l-2.08,1.87h2.45a.18.18,0,0,1,.18.19.19.19,0,0,1-.18.18h-2.92a.16.16,0,0,1-.13-.06A.18.18,0,0,1,310.07,101.93Z" style="fill: rgb(255, 255, 255); transform-origin: 311.631px 99.6601px 0px;" id="elu9hzshqhann" class="animable"></path><path d="M297.88,100.25A1.81,1.81,0,1,1,296.12,98,2,2,0,0,1,297.88,100.25Z" style="fill: rgb(255, 255, 255); transform-origin: 296.106px 99.8101px 0px;" id="eloebhf8qh4b" class="animable"></path><g id="elrd6b58mmrp"><rect x="326.99" y="95.24" width="0.88" height="9.52" style="fill: rgb(199, 199, 199); transform-origin: 327.43px 100px 0px; transform: rotate(-45deg);" class="animable"></rect></g><g id="elr7sf9b6b68b"><rect x="326.99" y="95.24" width="0.88" height="9.52" style="fill: rgb(199, 199, 199); transform-origin: 327.43px 100px 0px; transform: rotate(-135deg);" class="animable"></rect></g><path d="M319.78,420.94l-.21-.14c-.23-.15-5.63-3.83-7.94-8.09-1.59-2.91-1.81-6.14-.57-8.23a3.92,3.92,0,0,1,3.47-2c3.13,0,4.63,2.71,5.25,4.33.63-1.61,2.14-4.33,5.25-4.33a3.91,3.91,0,0,1,3.48,2c1.24,2.09,1,5.32-.56,8.22h0c-2.33,4.26-7.73,7.94-8,8.09Zm-5.25-17.7a3.13,3.13,0,0,0-2.82,1.62c-1.11,1.87-.88,4.81.58,7.49,2,3.65,6.47,7,7.49,7.68,1-.72,5.52-4,7.51-7.68,1.46-2.67,1.68-5.61.57-7.48a3.14,3.14,0,0,0-2.83-1.63c-3.8,0-4.87,4.86-4.88,4.9l-.37,1.75-.37-1.75C319.4,408.09,318.34,403.24,314.53,403.24Z" style="fill: rgb(38, 50, 56); transform-origin: 319.782px 411.71px 0px;" id="elkjv929dh95" class="animable"></path><path d="M324.84,393.31c-1.8,3.3-6.12,6.21-6.12,6.21s-4.31-2.91-6.1-6.21c-2-3.72-.91-7.54,2-7.54,3.25,0,4.09,4.06,4.09,4.06s.86-4.06,4.1-4.06C325.73,385.77,326.87,389.59,324.84,393.31Z" style="fill: rgb(255, 255, 255); transform-origin: 318.734px 392.645px 0px;" id="el7aem31acp87" class="animable"></path><path d="M320.31,374.93c-1.8,3.29-6.11,6.2-6.11,6.2s-4.31-2.91-6.1-6.2c-2-3.73-.91-7.55,2-7.55,3.26,0,4.1,4.06,4.1,4.06s.85-4.06,4.09-4.06C321.21,367.38,322.34,371.2,320.31,374.93Z" style="fill: rgb(255, 255, 255); transform-origin: 314.21px 374.255px 0px;" id="ell61j993v8ze" class="animable"></path><path d="M325.21,354.83c-1.8,3.3-6.11,6.2-6.11,6.2s-4.31-2.9-6.1-6.2c-2-3.73-.91-7.55,2-7.55,3.26,0,4.1,4.06,4.1,4.06s.85-4.06,4.09-4.06C326.11,347.28,327.24,351.1,325.21,354.83Z" style="fill: rgb(255, 255, 255); transform-origin: 319.11px 354.155px 0px;" id="elzb6z4vsitpl" class="animable"></path><g id="ellta4ztl2wzk"><path d="M332,382.79c-1.8,3.3-6.11,6.2-6.11,6.2s-4.31-2.9-6.1-6.2c-2-3.73-.91-7.54,2-7.54,3.25,0,4.09,4.05,4.09,4.05s.85-4.05,4.09-4.05C332.87,375.25,334,379.06,332,382.79Z" style="fill: rgb(255, 255, 255); opacity: 0.5; transform-origin: 325.89px 382.12px 0px;" class="animable"></path></g><g id="elnoqhhy2qn8f"><path d="M328.67,343.71c-1.8,3.29-6.11,6.2-6.11,6.2s-4.32-2.91-6.1-6.2c-2-3.73-.91-7.55,2-7.55,3.26,0,4.1,4.06,4.1,4.06s.85-4.06,4.09-4.06C329.57,336.16,330.7,340,328.67,343.71Z" style="fill: rgb(255, 255, 255); opacity: 0.5; transform-origin: 322.57px 343.035px 0px;" class="animable"></path></g><g id="eloaui6ph2l28"><path d="M329.67,367.49c-1.8,3.3-6.12,6.21-6.12,6.21s-4.31-2.91-6.1-6.21c-2-3.72-.91-7.54,2-7.54,3.25,0,4.09,4.06,4.09,4.06s.86-4.06,4.1-4.06C330.57,360,331.7,363.77,329.67,367.49Z" style="fill: rgb(255, 255, 255); opacity: 0.5; transform-origin: 323.565px 366.825px 0px;" class="animable"></path></g><path d="M279.89,411.68a1.06,1.06,0,1,1-1.05-1.06A1,1,0,0,1,279.89,411.68Z" style="fill: rgb(38, 50, 56); transform-origin: 278.831px 411.679px 0px;" id="el5bhdvvn7rpt" class="animable"></path><path d="M285.44,411.68a1.06,1.06,0,1,1-1.05-1.06A1,1,0,0,1,285.44,411.68Z" style="fill: rgb(38, 50, 56); transform-origin: 284.381px 411.679px 0px;" id="eli01yigb264a" class="animable"></path><path d="M291,411.68a1.06,1.06,0,1,1-1.06-1.06A1.06,1.06,0,0,1,291,411.68Z" style="fill: rgb(38, 50, 56); transform-origin: 289.94px 411.68px 0px;" id="ele7yu0nfynk8" class="animable"></path></g><g id="freepik--Icons--inject-85" style="transform-origin: 243.909px 189.391px 0px;" class="animable animator-active"><g id="elofokjql2k3q"><circle cx="122.41" cy="117.15" r="35.63" style="fill: rgb(227, 188, 227); transform-origin: 122.41px 117.15px 0px; transform: rotate(-65.03deg);" class="animable"></circle></g><path d="M112.06,115.13c-1.4,6.68-7.39,14-7.39,14s-9-2.8-13.85-7.61c-5.48-5.42-5.53-12.64-.45-14.17,5.66-1.69,9.24,4.93,9.24,4.93s-.64-7.51,5-9.2C109.69,101.54,113.65,107.59,112.06,115.13Z" style="fill: rgb(227, 188, 227); transform-origin: 99.5244px 115.984px 0px;" id="ellx3t6cbkgbq" class="animable"></path><g id="elgq49xgsl7qd"><path d="M112.06,115.13c-1.4,6.68-7.39,14-7.39,14s-9-2.8-13.85-7.61c-5.48-5.42-5.53-12.64-.45-14.17,5.66-1.69,9.24,4.93,9.24,4.93s-.64-7.51,5-9.2C109.69,101.54,113.65,107.59,112.06,115.13Z" style="opacity: 0.2; transform-origin: 99.5244px 115.984px 0px;" class="animable"></path></g><path d="M151.18,103.38c-1.41,6.68-7.39,14-7.39,14s-9-2.8-13.86-7.61c-5.48-5.42-5.53-12.64-.45-14.17,5.66-1.7,9.24,4.93,9.24,4.93s-.63-7.51,5-9.21C148.8,89.79,152.76,95.84,151.18,103.38Z" style="fill: rgb(227, 188, 227); transform-origin: 138.637px 104.231px 0px;" id="el76wg6e99o6v" class="animable"></path><g id="elrs5cxcblb2j"><path d="M151.18,103.38c-1.41,6.68-7.39,14-7.39,14s-9-2.8-13.86-7.61c-5.48-5.42-5.53-12.64-.45-14.17,5.66-1.7,9.24,4.93,9.24,4.93s-.63-7.51,5-9.21C148.8,89.79,152.76,95.84,151.18,103.38Z" style="opacity: 0.2; transform-origin: 138.637px 104.231px 0px;" class="animable"></path></g><path d="M113.59,119.8l17.64-5.3s.12,7.52-6.74,9.58S113.59,119.8,113.59,119.8Z" style="fill: rgb(255, 255, 255); transform-origin: 122.41px 119.496px 0px;" id="eldeu13o32527" class="animable"></path><g id="freepik--xsrjP0--inject-85" style="transform-origin: 368.688px 268.709px 0px;" class="animable"><path d="M361.83,294.66c-1.35-.84-2.53-2.07-4.33-1.89-.69.07-.54-.5-.55-.88q0-10.17-.08-20.34c0-.49,0-.9.57-1.17,5.17-2.63,7.4-7.77,10.55-12.17a20.27,20.27,0,0,0,3.71-15.4c-.22-1.53.49-2.21,1.86-2.53,1.65-.38,3.3.07,3.87,1.2a27.19,27.19,0,0,1,3,8.88c.31,2.57-.61,5.08-.92,7.62-.23,1.87-.66,3.71-1,5.59.45.33,1,.16,1.47.16l17.18-.05c2.42,0,3.6.68,3.94,2.29a4.59,4.59,0,0,1-2.48,5c-.42.22-1.2,0-1.25.7s.75.61,1.14.88c2.08,1.42,1.71,4.35-.69,6.06-.57.4-1.69.22-1.72,1.07,0,.67,1,.66,1.52,1.13,1.67,1.65.85,4.74-1.64,6a8.13,8.13,0,0,0-1,.39c-.28.19-.56.41,0,.8,2.49,1.76,2.44,4.23-.05,6l-.74.54a4.8,4.8,0,0,1-3,.67q-13.47.07-26.94.1A3.2,3.2,0,0,1,361.83,294.66Z" style="fill: rgb(227, 188, 227); fill-rule: evenodd; transform-origin: 379.028px 267.744px 0px;" id="elg43vbxwu3qm" class="animable"></path><path d="M336.25,282.79c0-4.31,0-8.62-.06-12.93,0-.87.08-1.3,1.15-1.3q7.89.07,15.76,0c1,0,1.2.34,1.19,1.25q0,13,.1,26c0,1.1-.29,1.42-1.4,1.4-5.1,0-10.19,0-15.29.06-1.27,0-1.44-.42-1.43-1.53C336.32,291.4,336.26,287.1,336.25,282.79Z" style="fill: rgb(227, 188, 227); fill-rule: evenodd; transform-origin: 345.29px 282.915px 0px;" id="elgkn0wx4v8fk" class="animable"></path></g></g><defs>     <filter id="active" height="200%">         <feMorphology in="SourceAlpha" result="DILATED" operator="dilate" radius="2"></feMorphology>                <feFlood flood-color="#32DFEC" flood-opacity="1" result="PINK"></feFlood>        <feComposite in="PINK" in2="DILATED" operator="in" result="OUTLINE"></feComposite>        <feMerge>            <feMergeNode in="OUTLINE"></feMergeNode>            <feMergeNode in="SourceGraphic"></feMergeNode>        </feMerge>    </filter>    <filter id="hover" height="200%">        <feMorphology in="SourceAlpha" result="DILATED" operator="dilate" radius="2"></feMorphology>                <feFlood flood-color="#ff0000" flood-opacity="0.5" result="PINK"></feFlood>        <feComposite in="PINK" in2="DILATED" operator="in" result="OUTLINE"></feComposite>        <feMerge>            <feMergeNode in="OUTLINE"></feMergeNode>            <feMergeNode in="SourceGraphic"></feMergeNode>        </feMerge>            <feColorMatrix type="matrix" values="0   0   0   0   0                0   1   0   0   0                0   0   0   0   0                0   0   0   1   0 "></feColorMatrix>    </filter></defs></svg>