<svg width="32" height="31" viewBox="0 0 32 31" fill="none" xmlns="http://www.w3.org/2000/svg">
<path d="M26.1333 27.125L17.7333 18.9875C17.0667 19.5042 16.3 19.9132 15.4333 20.2146C14.5667 20.516 13.6444 20.6667 12.6667 20.6667C10.2444 20.6667 8.19467 19.8538 6.51733 18.228C4.84 16.6022 4.00089 14.6165 4 12.2708C4 9.92431 4.83911 7.93858 6.51733 6.31367C8.19556 4.68875 10.2453 3.87586 12.6667 3.875C15.0889 3.875 17.1387 4.68789 18.816 6.31367C20.4933 7.93944 21.3324 9.92517 21.3333 12.2708C21.3333 13.2181 21.1778 14.1115 20.8667 14.951C20.5556 15.7906 20.1333 16.5333 19.6 17.1792L28 25.3167L26.1333 27.125ZM12.6667 18.0833C14.3333 18.0833 15.7502 17.518 16.9173 16.3874C18.0844 15.2567 18.6676 13.8846 18.6667 12.2708C18.6667 10.6562 18.0831 9.28364 16.916 8.153C15.7489 7.02236 14.3324 6.45747 12.6667 6.45833C11 6.45833 9.58311 7.02365 8.416 8.15429C7.24889 9.28493 6.66578 10.6571 6.66667 12.2708C6.66667 13.8854 7.25022 15.258 8.41733 16.3887C9.58444 17.5193 11.0009 18.0842 12.6667 18.0833Z" fill="black"/>
</svg>
