<svg width="16" height="15" viewBox="0 0 16 15" fill="none" xmlns="http://www.w3.org/2000/svg">
<path d="M15.7656 13.719C15.8399 13.7887 15.8988 13.8714 15.9391 13.9625C15.9793 14.0535 16 14.1511 16 14.2496C16 14.3482 15.9793 14.4457 15.9391 14.5368C15.8988 14.6278 15.8399 14.7105 15.7656 14.7802C15.6912 14.8499 15.603 14.9052 15.5059 14.9429C15.4088 14.9806 15.3047 15 15.1996 15C15.0945 15 14.9904 14.9806 14.8933 14.9429C14.7962 14.9052 14.708 14.8499 14.6336 14.7802L8 8.56025L1.36637 14.7802C1.21626 14.9209 1.01268 15 0.8004 15C0.588121 15 0.384536 14.9209 0.234432 14.7802C0.0843276 14.6395 4.18453e-09 14.4486 0 14.2496C-4.18453e-09 14.0506 0.0843276 13.8598 0.234432 13.719L6.86906 7.5L0.234432 1.28097C0.0843276 1.14025 -1.5816e-09 0.949387 0 0.750375C1.5816e-09 0.551363 0.0843276 0.360502 0.234432 0.21978C0.384536 0.0790571 0.588121 1.48275e-09 0.8004 0C1.01268 -1.48275e-09 1.21626 0.0790571 1.36637 0.21978L8 6.43975L14.6336 0.21978C14.7837 0.0790571 14.9873 -3.923e-09 15.1996 0C15.4119 3.923e-09 15.6155 0.0790571 15.7656 0.21978C15.9157 0.360502 16 0.551363 16 0.750375C16 0.949387 15.9157 1.14025 15.7656 1.28097L9.13094 7.5L15.7656 13.719Z" fill="black"/>
</svg>
