<svg width="32" height="28" viewBox="0 0 32 28" fill="none" xmlns="http://www.w3.org/2000/svg">
<path d="M31.5311 25.6089C31.6798 25.7389 31.7977 25.8933 31.8781 26.0633C31.9586 26.2332 32 26.4154 32 26.5993C32 26.7832 31.9586 26.9654 31.8781 27.1353C31.7977 27.3053 31.6798 27.4597 31.5311 27.5897C31.3825 27.7198 31.206 27.823 31.0118 27.8934C30.8176 27.9638 30.6094 28 30.3992 28C30.189 28 29.9808 27.9638 29.7866 27.8934C29.5924 27.823 29.4159 27.7198 29.2673 27.5897L16 15.9791L2.73274 27.5897C2.43253 27.8524 2.02536 28 1.6008 28C1.17624 28 0.769072 27.8524 0.468863 27.5897C0.168655 27.3271 8.36907e-09 26.9708 0 26.5993C-8.36906e-09 26.2278 0.168655 25.8715 0.468863 25.6089L13.7381 14L0.468863 2.39114C0.168655 2.12846 -3.16321e-09 1.77219 0 1.4007C3.16321e-09 1.02921 0.168655 0.672938 0.468863 0.410256C0.769072 0.147573 1.17624 2.76781e-09 1.6008 0C2.02536 -2.76781e-09 2.43253 0.147573 2.73274 0.410256L16 12.0209L29.2673 0.410256C29.5675 0.147573 29.9746 -7.32293e-09 30.3992 0C30.8238 7.32293e-09 31.2309 0.147573 31.5311 0.410256C31.8313 0.672938 32 1.02921 32 1.4007C32 1.77219 31.8313 2.12846 31.5311 2.39114L18.2619 14L31.5311 25.6089Z" fill="black"/>
</svg>
