<svg width="26" height="26" viewBox="0 0 26 26" fill="none" xmlns="http://www.w3.org/2000/svg">
<path d="M23.1494 3.0413C22.5629 2.39415 21.8667 1.88078 21.1003 1.53053C20.334 1.18028 19.5126 1 18.6831 1C17.8535 1 17.0321 1.18028 16.2658 1.53053C15.4994 1.88078 14.8032 2.39415 14.2167 3.0413L12.9997 4.38374L11.7826 3.0413C10.5981 1.73471 8.99152 1.00068 7.31633 1.00068C5.64114 1.00068 4.03455 1.73471 2.85001 3.0413C1.66547 4.34789 1 6.12 1 7.96779C1 9.81559 1.66547 11.5877 2.85001 12.8943L4.06705 14.2367L12.9997 24.0897L21.9323 14.2367L23.1494 12.8943C23.7361 12.2474 24.2015 11.4794 24.519 10.6341C24.8366 9.78882 25 8.88279 25 7.96779C25 7.0528 24.8366 6.14677 24.519 5.30146C24.2015 4.45616 23.7361 3.68815 23.1494 3.0413Z" stroke="black" stroke-width="2" stroke-linecap="round" stroke-linejoin="round"/>
</svg>
